<svg width="128" height="24" viewBox="0 0 128 24" fill="none" xmlns="http://www.w3.org/2000/svg">
<path d="M56.6851 14.8303C56.28 14.8339 55.8827 14.7206 55.5428 14.5046C55.2029 14.2885 54.9354 13.9793 54.7736 13.6153L50.339 3.88845C50.2072 3.6013 49.9939 3.35741 49.7244 3.18595C49.4549 3.01449 49.1407 2.92272 48.8193 2.92161H39.692C39.2484 2.92161 38.823 3.09425 38.5094 3.40157C38.1957 3.70889 38.0195 4.1257 38.0195 4.56032V5.46628C38.0195 5.9009 38.1957 6.31771 38.5094 6.62503C38.823 6.93234 39.2484 7.10499 39.692 7.10499H46.4802C47.3927 7.10561 48.2678 7.46089 48.9132 8.09289C49.5587 8.72488 49.922 9.58196 49.9232 10.476V11.3797C49.922 12.2738 49.5587 13.1308 48.9132 13.7628C48.2678 14.3948 47.3927 14.7501 46.4802 14.7507H31.0975C30.1854 14.7495 29.311 14.3939 28.666 13.762C28.021 13.1301 27.6581 12.2733 27.6569 11.3797V2.05778C27.6569 1.82681 27.7505 1.60531 27.9172 1.44199C28.0839 1.27868 28.31 1.18692 28.5457 1.18692C28.7814 1.18692 29.0075 1.27868 29.1742 1.44199C29.3409 1.60531 29.4345 1.82681 29.4345 2.05778V11.3797C29.4345 11.8143 29.6107 12.2311 29.9244 12.5384C30.2381 12.8457 30.6635 13.0184 31.1071 13.0184H46.4897C46.9333 13.0184 47.3587 12.8457 47.6724 12.5384C47.9861 12.2311 48.1623 11.8143 48.1623 11.3797V10.4714C48.1623 10.0367 47.9861 9.61993 47.6724 9.31261C47.3587 9.0053 46.9333 8.83265 46.4897 8.83265H39.692C38.7795 8.83141 37.9047 8.47553 37.2597 7.8431C36.6146 7.21067 36.252 6.35335 36.2514 5.45927V4.5533C36.252 3.65922 36.6146 2.80189 37.2597 2.16946C37.9047 1.53702 38.7795 1.18114 39.692 1.1799H48.8193C49.4852 1.1814 50.1363 1.37161 50.6942 1.7276C51.2522 2.08358 51.6931 2.59013 51.9637 3.18615L56.396 12.9084C56.4197 12.9639 56.46 13.0111 56.5116 13.0437C56.5632 13.0763 56.6237 13.0927 56.6851 13.0909C56.7464 13.0924 56.8068 13.0755 56.858 13.0424C56.9092 13.0094 56.949 12.9618 56.9718 12.906L61.9464 1.71131C61.9935 1.60648 62.0612 1.51175 62.1456 1.43255C62.2301 1.35334 62.3296 1.29121 62.4385 1.24969C62.5475 1.20817 62.6637 1.18808 62.7805 1.19057C62.8974 1.19305 63.0126 1.21807 63.1196 1.26418C63.2266 1.31029 63.3233 1.3766 63.4041 1.45932C63.485 1.54205 63.5484 1.63956 63.5908 1.74629C63.6332 1.85303 63.6537 1.9669 63.6511 2.0814C63.6486 2.1959 63.6231 2.30878 63.576 2.41362L58.6061 13.606C58.4467 13.9728 58.1802 14.2853 57.8401 14.5044C57.5001 14.7234 57.1016 14.8393 56.6947 14.8373L56.6851 14.8303Z" fill="white"/>
<path d="M70.0368 10.1881H64.4051C64.1693 10.1881 63.9433 10.0963 63.7766 9.93303C63.6099 9.76971 63.5162 9.54821 63.5162 9.31724C63.5162 9.08628 63.6099 8.86477 63.7766 8.70146C63.9433 8.53814 64.1693 8.44638 64.4051 8.44638H70.0368C70.2725 8.44638 70.4986 8.53814 70.6653 8.70146C70.832 8.86477 70.9256 9.08628 70.9256 9.31724C70.9256 9.54821 70.832 9.76971 70.6653 9.93303C70.4986 10.0963 70.2725 10.1881 70.0368 10.1881Z" fill="white"/>
<path d="M82.1867 2.92867H70.6294C70.3937 2.92867 70.1676 2.83691 70.0009 2.67359C69.8342 2.51027 69.7406 2.28877 69.7406 2.05781C69.7406 1.82684 69.8342 1.60534 70.0009 1.44202C70.1676 1.2787 70.3937 1.18695 70.6294 1.18695H82.1867C82.4225 1.18695 82.6485 1.2787 82.8152 1.44202C82.9819 1.60534 83.0756 1.82684 83.0756 2.05781C83.0756 2.28877 82.9819 2.51027 82.8152 2.67359C82.6485 2.83691 82.4225 2.92867 82.1867 2.92867Z" fill="white"/>
<path d="M97.0054 14.5447H89.5984C88.5764 14.5429 87.5969 14.1441 86.8745 13.4359C86.152 12.7276 85.7456 11.7677 85.7444 10.7664V4.96533C85.7456 3.96403 86.152 3.00406 86.8745 2.29581C87.5969 1.58756 88.5764 1.18881 89.5984 1.18695H97.0054C97.2411 1.18695 97.4672 1.2787 97.6339 1.44202C97.8006 1.60534 97.8942 1.82684 97.8942 2.05781C97.8942 2.28877 97.8006 2.51027 97.6339 2.67359C97.4672 2.83691 97.2411 2.92867 97.0054 2.92867H89.5984C89.0475 2.92929 88.5194 3.14414 88.1301 3.52602C87.7407 3.9079 87.5221 4.42558 87.5221 4.96533V10.7664C87.5221 11.3061 87.7407 11.8238 88.1301 12.2057C88.5194 12.5876 89.0475 12.8024 89.5984 12.803H97.0054C97.2411 12.803 97.4672 12.8948 97.6339 13.0581C97.8006 13.2214 97.8942 13.4429 97.8942 13.6739C97.8942 13.9048 97.8006 14.1263 97.6339 14.2897C97.4672 14.453 97.2411 14.5447 97.0054 14.5447Z" fill="white"/>
<path d="M112.417 14.5447H105.01C103.988 14.5435 103.008 14.1449 102.285 13.4366C101.563 12.7282 101.156 11.7678 101.156 10.7664V4.96533C101.156 3.96384 101.563 3.0035 102.285 2.29512C103.008 1.58674 103.988 1.18819 105.01 1.18695H112.417C112.653 1.18695 112.879 1.2787 113.045 1.44202C113.212 1.60534 113.306 1.82684 113.306 2.05781C113.306 2.28877 113.212 2.51027 113.045 2.67359C112.879 2.83691 112.653 2.92867 112.417 2.92867H105.01C104.459 2.92929 103.931 3.14414 103.541 3.52602C103.152 3.9079 102.933 4.42558 102.933 4.96533V10.7664C102.933 11.3061 103.152 11.8238 103.541 12.2057C103.931 12.5876 104.459 12.8024 105.01 12.803H112.417C112.653 12.803 112.879 12.8948 113.045 13.0581C113.212 13.2214 113.306 13.4429 113.306 13.6739C113.306 13.9048 113.212 14.1263 113.045 14.2897C112.879 14.453 112.653 14.5447 112.417 14.5447Z" fill="white"/>
<path d="M97.0054 8.7367H86.6332C86.3975 8.7367 86.1714 8.64495 86.0047 8.48163C85.838 8.31831 85.7444 8.09681 85.7444 7.86584C85.7444 7.63488 85.838 7.41337 86.0047 7.25006C86.1714 7.08674 86.3975 6.995 86.6332 6.995H97.0054C97.2411 6.995 97.4672 7.08674 97.6339 7.25006C97.8006 7.41337 97.8942 7.63488 97.8942 7.86584C97.8942 8.09681 97.8006 8.31831 97.6339 8.48163C97.4672 8.64495 97.2411 8.7367 97.0054 8.7367Z" fill="white"/>
<path d="M76.4092 14.6899C76.1732 14.6899 75.9469 14.5982 75.7798 14.4349C75.6128 14.2717 75.5186 14.0502 75.5179 13.819V2.48385C75.5298 2.26039 75.6287 2.0499 75.7943 1.89583C75.9599 1.74175 76.1796 1.65585 76.408 1.65585C76.6364 1.65585 76.856 1.74175 77.0216 1.89583C77.1873 2.0499 77.2862 2.26039 77.298 2.48385V13.8096C77.2974 14.0404 77.2035 14.2616 77.037 14.4247C76.8704 14.5879 76.6447 14.6799 76.4092 14.6805" fill="white"/>
<path d="M116.861 14.835C116.625 14.8344 116.4 14.7424 116.233 14.5793C116.067 14.4161 115.973 14.1949 115.972 13.9642V2.05779C115.984 1.83433 116.083 1.62384 116.249 1.46977C116.414 1.3157 116.634 1.2298 116.862 1.2298C117.091 1.2298 117.31 1.3157 117.476 1.46977C117.641 1.62384 117.74 1.83433 117.752 2.05779V13.9548C117.752 14.186 117.657 14.4075 117.49 14.5707C117.323 14.734 117.097 14.8256 116.861 14.8256" fill="white"/>
<path d="M126.05 14.835C125.814 14.8325 125.589 14.7385 125.424 14.5735C125.259 14.4085 125.167 14.186 125.169 13.9548V2.05779C125.181 1.83433 125.279 1.62384 125.445 1.46977C125.611 1.3157 125.83 1.2298 126.059 1.2298C126.287 1.2298 126.507 1.3157 126.672 1.46977C126.838 1.62384 126.937 1.83433 126.949 2.05779V13.9548C126.948 14.1856 126.854 14.4067 126.688 14.5699C126.521 14.7331 126.295 14.825 126.06 14.8256" fill="white"/>
<path d="M125.754 9.03865H116.863C116.628 9.03865 116.402 8.9469 116.235 8.78358C116.068 8.62027 115.974 8.39876 115.974 8.1678C115.974 7.93683 116.068 7.71531 116.235 7.552C116.402 7.38868 116.628 7.29694 116.863 7.29694H125.754C125.99 7.29694 126.216 7.38868 126.383 7.552C126.549 7.71531 126.643 7.93683 126.643 8.1678C126.643 8.39876 126.549 8.62027 126.383 8.78358C126.216 8.9469 125.99 9.03865 125.754 9.03865Z" fill="white"/>
<path d="M12.1069 10.2654L12.236 10.4784L12.1069 10.2654Z" fill="white"/>
<path d="M12.236 10.4784L12.5729 11.0309L12.236 10.4784Z" fill="white"/>
<path d="M12.5562 11.0566H12.5896L12.5729 11.0309L12.5562 11.0566Z" fill="white"/>
<path d="M17.7434 12.2224C17.7175 12.1619 17.6871 12.1032 17.6526 12.0469C17.6293 11.9888 17.5962 11.935 17.5547 11.8877C17.5246 11.8338 17.4894 11.7829 17.4495 11.7355L17.3922 11.6793L17.2608 11.5506C17.1963 11.4967 17.1246 11.4406 17.0433 11.3844C16.8851 11.28 16.7109 11.201 16.5272 11.1503C16.4821 11.1338 16.4358 11.1205 16.3887 11.1105C16.348 11.1105 16.3074 11.0941 16.2572 11.0894C16.1643 11.0724 16.0699 11.0638 15.9753 11.0637H12.5561L12.2288 11.574L12.0448 11.8596L11.6745 12.4331H15.9753H16.0159C16.1469 12.4438 16.2689 12.5025 16.3576 12.5976C16.4462 12.6927 16.4948 12.8171 16.4938 12.9458C16.4929 13.0221 16.4749 13.0972 16.4412 13.1659L16.3743 13.2642C16.3437 13.3036 16.3066 13.3376 16.2644 13.3649L16.2381 13.3789L16.1617 13.414H16.1497L16.0757 13.4374H16.0255H15.9586H11.0054L10.6829 13.9548C10.509 14.224 10.2684 14.4457 9.98343 14.5992C9.69849 14.7527 9.37852 14.833 9.05334 14.8327H15.9753C16.0398 14.8327 16.0948 14.8327 16.1282 14.8327L16.3982 14.7929C16.4452 14.7854 16.4909 14.772 16.5344 14.7531C16.6071 14.7353 16.6782 14.7118 16.7471 14.6828C16.7899 14.6637 16.8314 14.6418 16.8713 14.6173C16.9449 14.5838 17.0153 14.5439 17.0816 14.4979C17.2365 14.3878 17.3741 14.2561 17.4901 14.107C17.5306 14.0634 17.5659 14.0155 17.5953 13.9642L17.6526 13.8752L17.6693 13.8424L17.6837 13.8214C17.8223 13.5544 17.8951 13.2594 17.8963 12.9599C17.8978 12.7099 17.8474 12.4622 17.7482 12.2318" fill="white"/>
<path d="M10.683 13.9548L11.0055 13.4562L11.6745 12.4331L12.0497 11.8549L12.2336 11.5693L12.561 11.059L12.5777 11.0356L12.2432 10.4807L12.1142 10.2677L11.7773 9.70821L11.4189 10.256L11.1011 10.7476L9.50739 13.2221C9.45807 13.2944 9.39123 13.3536 9.31285 13.3945C9.23447 13.4353 9.14697 13.4565 9.05819 13.4562H2.09084L1.99288 13.4374C1.97515 13.429 1.95678 13.422 1.93793 13.4164L1.86146 13.3742L1.82563 13.3438L1.80173 13.3298L1.71811 13.2385L1.68466 13.1846C1.67403 13.1663 1.666 13.1466 1.66076 13.1261L1.6297 12.9716V12.899L1.64881 12.8335L1.66793 12.7632V12.7398L1.69899 12.686L1.72766 12.6415C1.77463 12.5785 1.8361 12.5272 1.90709 12.4918C1.97808 12.4564 2.05659 12.4379 2.13624 12.4378H8.39874C8.50986 12.4383 8.61927 12.411 8.71667 12.3586C8.81407 12.3062 8.89624 12.2303 8.95545 12.1382L10.8215 9.27279L11.1752 8.72266L10.8383 8.16315L10.3723 7.39062L10.0163 7.93841L8.18608 10.7664C8.12647 10.8574 8.04449 10.9323 7.94763 10.9843C7.85078 11.0362 7.74216 11.0635 7.63175 11.0637H2.14819C2.11811 11.0591 2.08748 11.0591 2.05739 11.0637C1.76547 11.0714 1.4796 11.147 1.2233 11.2842C0.967004 11.4213 0.747609 11.6161 0.583164 11.8526H0.571216L0.52343 11.9228C0.472121 11.9962 0.428871 12.0746 0.394403 12.1569C0.36673 12.2171 0.342795 12.2788 0.322725 12.3418L0.279715 12.4144V12.487C0.26338 12.5301 0.252156 12.5748 0.246264 12.6204C0.231397 12.7243 0.224212 12.8292 0.224761 12.9341C0.224761 12.988 0.224761 13.0605 0.224761 13.084C0.225993 13.1249 0.230789 13.1656 0.239096 13.2057C0.244423 13.2651 0.255626 13.3239 0.272547 13.3813C0.311122 13.5535 0.380705 13.7176 0.478031 13.8658C0.502959 13.9197 0.532534 13.9714 0.566436 14.0204C0.5882 14.0563 0.615619 14.0887 0.647677 14.1163C0.682312 14.1637 0.720657 14.2083 0.762365 14.2498C0.818656 14.3099 0.882014 14.3634 0.951122 14.409C1.01377 14.4607 1.08093 14.5069 1.15183 14.5471C1.22794 14.5933 1.30787 14.6333 1.39077 14.6665C1.46851 14.7008 1.5483 14.7305 1.6297 14.7554C1.69325 14.7744 1.75919 14.7847 1.82563 14.7859C1.9249 14.8096 2.0269 14.8206 2.12907 14.8186H9.04625C9.37142 14.819 9.6914 14.7387 9.97634 14.5852C10.2613 14.4317 10.5019 14.21 10.6758 13.9408" fill="white"/>
<path d="M17.2608 3.77142L14.8882 7.45383L15.2418 6.90369L17.2608 3.77142Z" fill="white"/>
<path d="M23.1075 3.77142H22.5054L17.7148 11.1784L17.3922 11.6793L17.4496 11.7355C17.4895 11.7829 17.5247 11.8338 17.5547 11.8877C17.5962 11.935 17.6294 11.9888 17.6527 12.0469C17.6872 12.1032 17.7175 12.1619 17.7434 12.2225C17.8427 12.4528 17.8931 12.7005 17.8916 12.9505C17.8904 13.25 17.8175 13.5451 17.6789 13.812L18.4579 12.6064L23.8602 4.23494L24.6774 2.97314C24.4977 3.21839 24.2614 3.41854 23.9878 3.55727C23.7141 3.696 23.4109 3.76938 23.1028 3.77142" fill="white"/>
<path d="M11.0509 2.65241C11.0078 2.732 10.9696 2.81394 10.9194 2.88651L10.7068 3.21426L11.0437 3.77376L11.6888 4.84126L13.8918 8.50025L15.0865 10.4714L15.4353 11.0496H15.9753C16.0699 11.0497 16.1643 11.0583 16.2572 11.0754C16.3074 11.0754 16.348 11.0894 16.3887 11.0964C16.4357 11.1068 16.482 11.1201 16.5272 11.1362L16.8522 10.6329L20.7062 4.65398L21.2797 3.76439H19.6071L19.2368 4.35667L16.3911 8.76713C16.3534 8.82717 16.3007 8.87676 16.238 8.91116C16.1753 8.94556 16.1046 8.96361 16.0326 8.96361C15.9607 8.96361 15.89 8.94556 15.8273 8.91116C15.7646 8.87676 15.7119 8.82717 15.6742 8.76713L15.2322 8.0344L14.8929 7.47255L14.427 6.69768L14.0901 6.13817L13.4928 5.15027L13.1559 4.59077L12.6899 3.81355L12.353 3.25405L11.7748 2.29893L10.9959 1.00903C11.1311 1.26445 11.2063 1.5462 11.2163 1.83374C11.2262 2.12129 11.1705 2.40737 11.0532 2.67114" fill="white"/>
<path d="M11.371 6.32779L10.4201 4.74995L10.0832 4.18811L9.72717 4.73825L9.23975 5.49673L9.57665 6.05623L10.0354 6.82174L10.3723 7.38124L10.8358 8.15612L11.1751 8.71562L11.7701 9.70586L12.107 10.2654L12.2384 10.4784L12.5729 11.0309L12.5896 11.0566H14.2239L13.8751 10.4784L11.371 6.32779Z" fill="white"/>
<path d="M2.05736 11.066C2.08744 11.0614 2.11807 11.0614 2.14816 11.066H2.75983L8.80728 1.65983L8.96259 1.48425L9.07489 1.41871L9.17524 1.38359C9.2177 1.37517 9.26095 1.37124 9.30426 1.37188H9.33055C9.39549 1.38005 9.45852 1.39905 9.51692 1.42807L9.57426 1.4585V1.47021L9.63399 1.50766L9.65789 1.53341L9.67939 1.55448L9.71762 1.60364L9.73674 1.6411C9.77956 1.72074 9.80033 1.80999 9.79697 1.89994C9.79362 1.98989 9.76626 2.07742 9.71762 2.15379L8.25773 4.41285L3.97601 11.0566H5.64856L8.88613 6.04454L9.24453 5.49674L9.7224 4.73825L10.076 4.18812L10.6997 3.22128L10.9123 2.89119C10.9625 2.8116 11.0007 2.73201 11.0437 2.65709C11.161 2.39332 11.2167 2.10724 11.2067 1.8197C11.1968 1.53215 11.1215 1.2504 10.9864 0.994985V0.983276L10.9266 0.89666C10.8948 0.838723 10.8563 0.78453 10.812 0.73513L10.7474 0.655536C10.6726 0.568903 10.5885 0.490417 10.4966 0.421436C10.4309 0.369997 10.3623 0.322313 10.2911 0.27863C10.2416 0.250778 10.1906 0.22577 10.1382 0.203724C9.95838 0.114768 9.76581 0.0531939 9.56709 0.0211255C9.33849 -0.0112951 9.10565 -0.000170478 8.88135 0.0538959H8.81684C8.77177 0.0658491 8.7278 0.0815143 8.68542 0.100719C8.6403 0.111186 8.59688 0.127729 8.5564 0.149878C8.51028 0.162903 8.4661 0.181789 8.42498 0.20606L8.25295 0.292683C8.20516 0.325457 8.16454 0.35823 8.14782 0.372276L7.94473 0.543165C7.928 0.557211 7.84676 0.660216 7.84676 0.660216L0.58313 11.8479C0.747575 11.6114 0.966971 11.4166 1.22327 11.2795C1.47956 11.1423 1.76543 11.0667 2.05736 11.059" fill="white"/>
<path d="M25.0239 1.73472C25.0218 1.67826 25.0163 1.62196 25.0071 1.56617C25.0071 1.5334 24.9904 1.49595 24.9809 1.46317C24.9215 1.19135 24.7996 0.936389 24.6245 0.71772C24.4493 0.499051 24.2255 0.322444 23.9702 0.201367L23.8411 0.138162C23.7277 0.0946265 23.6111 0.0594115 23.4923 0.0328142C23.3653 0.0103915 23.2366 -0.000575412 23.1076 4.38609e-05H16.2143C15.8893 -0.002135 15.5692 0.0768985 15.284 0.229687C14.9989 0.382475 14.7582 0.603967 14.5848 0.873235L12.6996 3.79481L13.1655 4.57202L13.5024 5.13153L13.8584 4.58372L15.7842 1.60129C15.8287 1.52873 15.8918 1.4689 15.9673 1.42781C16.0428 1.38672 16.128 1.36582 16.2143 1.36719H23.1864H23.2151L23.2987 1.38826L23.3585 1.41635C23.4244 1.44749 23.4825 1.49265 23.5283 1.54853C23.5742 1.60442 23.6068 1.66963 23.6237 1.73941L23.6356 1.80964V1.87051C23.6387 1.90243 23.6387 1.93456 23.6356 1.96648L23.6141 2.04374V2.06247C23.5984 2.09234 23.5808 2.12127 23.5616 2.14909C23.5139 2.2158 23.4507 2.27037 23.3771 2.30824C23.3035 2.34612 23.2218 2.3662 23.1387 2.3668H17.3612C17.0936 2.36641 16.8302 2.43258 16.5958 2.55909C16.3613 2.6856 16.1635 2.86834 16.0208 3.09018L14.4414 5.5412L14.0878 6.09133L14.4247 6.65084L14.8906 7.42571L16.9717 4.19278C17.0607 4.05554 17.1835 3.94244 17.3288 3.86389C17.4741 3.78534 17.6373 3.74388 17.8032 3.74331H23.1076C23.416 3.74138 23.7195 3.66779 23.9932 3.52861C24.2669 3.38944 24.5031 3.18864 24.6822 2.94269C24.6822 2.94269 24.6822 2.94269 24.6941 2.92865L24.7443 2.84203C24.7809 2.78812 24.8136 2.7318 24.8423 2.67347C24.8863 2.58626 24.9222 2.49539 24.9498 2.40192C24.9753 2.32607 24.9914 2.24746 24.9976 2.16782C25.0177 2.06843 25.0257 1.96705 25.0215 1.86582C25.0262 1.8152 25.0262 1.76427 25.0215 1.71366" fill="white"/>
<path d="M0.14585 22.6306C0.12605 22.632 0.106169 22.6292 0.0875961 22.6223C0.0690229 22.6154 0.0522075 22.6047 0.0383296 22.5908C0.0131256 22.5631 -0.000524464 22.5272 9.90399e-05 22.4901V18.4542C-0.00130676 18.4142 0.0122934 18.375 0.0383296 18.3442C0.0525625 18.3307 0.0694333 18.3203 0.0879169 18.3135C0.106401 18.3066 0.12611 18.3035 0.14585 18.3044H1.57946C1.93935 18.2907 2.29779 18.3563 2.62839 18.4963C2.88175 18.6146 3.0859 18.8146 3.20661 19.0629C3.33759 19.3515 3.40282 19.6647 3.39776 19.9805C3.39776 20.1655 3.39776 20.327 3.39776 20.4675C3.39776 20.6079 3.39776 20.7695 3.39776 20.9497C3.39889 21.2715 3.33303 21.5901 3.20422 21.8861C3.08824 22.1308 2.88764 22.3273 2.63794 22.4409C2.31413 22.5749 1.96414 22.6373 1.61291 22.6235L0.14585 22.6306ZM0.62372 22.1062H1.57946C1.81705 22.1155 2.05397 22.0756 2.27476 21.9891C2.44328 21.9135 2.57701 21.7792 2.64989 21.6122C2.73604 21.3936 2.77744 21.1606 2.77175 20.9263C2.77175 20.8022 2.78608 20.6922 2.78608 20.6009V20.3223C2.78608 20.231 2.78609 20.1233 2.77175 20.004C2.79083 19.6833 2.68781 19.3672 2.48264 19.1167C2.35432 19.0103 2.20553 18.9302 2.04506 18.8811C1.88459 18.8321 1.7157 18.8151 1.5484 18.8311H0.621332L0.62372 22.1062Z" fill="white"/>
<path d="M4.61159 18.8171C4.59258 18.8177 4.57364 18.8145 4.55594 18.8077C4.53825 18.8009 4.52218 18.7905 4.50873 18.7774C4.49528 18.7642 4.48475 18.7485 4.47778 18.7311C4.47081 18.7138 4.46756 18.6952 4.46823 18.6766V18.3418C4.46701 18.3028 4.48162 18.265 4.50884 18.2365C4.52197 18.2228 4.53791 18.2119 4.55562 18.2047C4.57333 18.1974 4.5924 18.1939 4.61159 18.1943H5.01061C5.03014 18.194 5.04954 18.1975 5.06762 18.2048C5.08569 18.212 5.10207 18.2228 5.11574 18.2365C5.13031 18.25 5.14186 18.2664 5.14967 18.2845C5.15749 18.3026 5.16139 18.3222 5.16114 18.3418V18.6766C5.16181 18.6956 5.15807 18.7146 5.15021 18.732C5.14234 18.7494 5.13056 18.7649 5.11574 18.7773C5.10187 18.7905 5.0854 18.8009 5.06734 18.8077C5.04927 18.8145 5.02997 18.8177 5.01061 18.8171H4.61159ZM4.66176 22.6306C4.64276 22.6312 4.62382 22.628 4.60612 22.6212C4.58843 22.6144 4.57236 22.6041 4.55891 22.5909C4.54546 22.5777 4.53492 22.5619 4.52796 22.5446C4.52099 22.5273 4.51774 22.5087 4.5184 22.4901V19.5592C4.51747 19.5405 4.52061 19.5219 4.52761 19.5045C4.53462 19.4872 4.54533 19.4715 4.55902 19.4585C4.57215 19.4448 4.58809 19.4339 4.60579 19.4267C4.6235 19.4194 4.64257 19.4159 4.66176 19.4164H4.96521C4.98476 19.4159 5.0042 19.4193 5.0223 19.4266C5.0404 19.4338 5.05676 19.4447 5.07034 19.4585C5.08357 19.4718 5.09397 19.4876 5.10095 19.5048C5.10792 19.5221 5.11132 19.5406 5.11096 19.5592V22.4901C5.11132 22.5087 5.10792 22.5271 5.10095 22.5444C5.09397 22.5617 5.08357 22.5775 5.07034 22.5908C5.05664 22.6042 5.0402 22.6147 5.02209 22.6216C5.00398 22.6285 4.9846 22.6315 4.96521 22.6306H4.66176Z" fill="white"/>
<path d="M7.63888 23.9907C7.39974 23.9977 7.1614 23.9604 6.93642 23.8807C6.77595 23.8203 6.62964 23.7287 6.50633 23.6114C6.41403 23.5201 6.33954 23.413 6.28651 23.2954C6.24923 23.2162 6.22504 23.1316 6.21483 23.0449C6.21264 23.0255 6.21518 23.0058 6.22224 22.9875C6.2293 22.9692 6.24068 22.9527 6.25545 22.9396C6.28294 22.9132 6.31971 22.8981 6.35819 22.8974H6.65686C6.69037 22.8959 6.72359 22.9041 6.75244 22.9208C6.78399 22.9486 6.80574 22.9855 6.81456 23.0262C6.84642 23.0988 6.8848 23.1686 6.92925 23.2345C6.99075 23.3187 7.07294 23.3864 7.16819 23.4312C7.30634 23.4941 7.45807 23.523 7.61021 23.5155C7.78049 23.5197 7.95001 23.4919 8.10959 23.4335C8.24216 23.3829 8.35105 23.2863 8.41542 23.162C8.49259 22.9954 8.52783 22.8132 8.51817 22.6306V22.2115C8.41104 22.3445 8.27571 22.4531 8.12154 22.5299C7.92867 22.6203 7.71636 22.6637 7.5027 22.6563C7.29429 22.6622 7.08734 22.6205 6.89819 22.5346C6.73551 22.4595 6.59371 22.3471 6.48483 22.2068C6.37628 22.0666 6.29526 21.9078 6.24589 21.7386C6.19246 21.558 6.16118 21.3717 6.15271 21.1838C6.15271 21.0691 6.15271 20.9497 6.15271 20.8444C6.16137 20.6557 6.19265 20.4687 6.24589 20.2872C6.29597 20.1183 6.37693 19.9596 6.48483 19.819C6.59294 19.6775 6.73489 19.5641 6.89819 19.4889C7.08734 19.403 7.29429 19.3613 7.5027 19.3672C7.72057 19.359 7.93695 19.4058 8.1311 19.503C8.28885 19.5876 8.42712 19.7031 8.53728 19.8424V19.5732C8.53633 19.5342 8.5509 19.4965 8.5779 19.4679C8.59149 19.4541 8.60784 19.4432 8.62594 19.4359C8.64404 19.4287 8.66349 19.4252 8.68304 19.4257H8.97215C8.99206 19.4252 9.01187 19.4286 9.03036 19.4359C9.04886 19.4431 9.06564 19.454 9.07967 19.4679C9.0946 19.4811 9.10639 19.4974 9.11423 19.5156C9.12207 19.5338 9.12577 19.5535 9.12506 19.5732V22.5697C9.12993 22.8218 9.08111 23.0722 8.98171 23.3048C8.88523 23.5219 8.71688 23.7009 8.50384 23.8128C8.23385 23.9483 7.93232 24.012 7.62933 23.9977M7.61738 22.1694C7.79835 22.1772 7.977 22.1271 8.12631 22.0266C8.25118 21.9339 8.34851 21.8103 8.40826 21.6684C8.46969 21.5293 8.50296 21.3798 8.50622 21.2283C8.50622 21.1721 8.50622 21.0995 8.50622 21.0153C8.50622 20.931 8.50622 20.8608 8.50622 20.8022C8.50265 20.6515 8.46938 20.5028 8.40826 20.3645C8.34977 20.2219 8.2522 20.0979 8.12631 20.0063C7.97746 19.9048 7.79848 19.8546 7.61738 19.8635C7.43852 19.855 7.26165 19.9034 7.11323 20.0016C6.98739 20.0941 6.89255 20.2212 6.84084 20.3668C6.78469 20.5227 6.75326 20.6861 6.74766 20.8514C6.74766 20.9591 6.74766 21.0691 6.74766 21.1791C6.75326 21.3444 6.78469 21.5078 6.84084 21.6637C6.89134 21.8099 6.98642 21.9374 7.11323 22.0289C7.2609 22.1289 7.43813 22.1782 7.61738 22.1694Z" fill="white"/>
<path d="M10.4081 18.8171C10.3891 18.8177 10.3701 18.8145 10.3525 18.8077C10.3348 18.8009 10.3187 18.7905 10.3052 18.7774C10.2918 18.7642 10.2813 18.7485 10.2743 18.7311C10.2673 18.7138 10.2641 18.6952 10.2647 18.6766V18.3418C10.2635 18.3028 10.2781 18.265 10.3053 18.2365C10.3185 18.2228 10.3344 18.2119 10.3521 18.2047C10.3698 18.1974 10.3889 18.1939 10.4081 18.1943H10.8071C10.8266 18.194 10.846 18.1975 10.8641 18.2048C10.8822 18.212 10.8986 18.2228 10.9122 18.2365C10.9268 18.25 10.9384 18.2664 10.9462 18.2845C10.954 18.3026 10.9579 18.3222 10.9576 18.3418V18.6766C10.9583 18.6956 10.9546 18.7146 10.9467 18.732C10.9389 18.7494 10.9271 18.7649 10.9122 18.7773C10.8984 18.7905 10.8819 18.8009 10.8638 18.8077C10.8458 18.8145 10.8265 18.8177 10.8071 18.8171H10.4081ZM10.4583 22.6306C10.4393 22.6312 10.4203 22.628 10.4026 22.6212C10.3849 22.6144 10.3689 22.6041 10.3554 22.5909C10.342 22.5777 10.3314 22.5619 10.3245 22.5446C10.3175 22.5273 10.3142 22.5087 10.3149 22.4901V19.5592C10.314 19.5405 10.3171 19.5219 10.3241 19.5045C10.3311 19.4872 10.3418 19.4715 10.3555 19.4585C10.3687 19.4448 10.3846 19.4339 10.4023 19.4267C10.42 19.4194 10.4391 19.4159 10.4583 19.4164H10.7617C10.7813 19.4159 10.8007 19.4193 10.8188 19.4266C10.8369 19.4338 10.8533 19.4447 10.8668 19.4585C10.8801 19.4718 10.8905 19.4876 10.8975 19.5048C10.9044 19.5221 10.9078 19.5406 10.9075 19.5592V22.4901C10.9078 22.5087 10.9044 22.5271 10.8975 22.5444C10.8905 22.5617 10.8801 22.5775 10.8668 22.5908C10.8531 22.6042 10.8367 22.6147 10.8186 22.6216C10.8005 22.6285 10.7811 22.6315 10.7617 22.6306H10.4583Z" fill="white"/>
<path d="M13.3733 22.6306C13.1732 22.6394 12.9745 22.5932 12.7998 22.4971C12.6527 22.4109 12.5392 22.2791 12.4773 22.1226C12.4066 21.9378 12.3725 21.7416 12.3769 21.5443V19.9056H11.8847C11.8652 19.9061 11.8457 19.9026 11.8276 19.8954C11.8095 19.8881 11.7932 19.8773 11.7796 19.8635C11.7661 19.8503 11.7556 19.8346 11.7486 19.8173C11.7416 19.8 11.7383 19.7814 11.739 19.7628V19.5521C11.7386 19.5335 11.742 19.5151 11.749 19.4978C11.756 19.4805 11.7664 19.4648 11.7796 19.4515C11.7932 19.4377 11.8095 19.4268 11.8276 19.4196C11.8457 19.4123 11.8652 19.4088 11.8847 19.4093H12.3769V18.3793C12.376 18.3603 12.3791 18.3413 12.3861 18.3235C12.3931 18.3058 12.4038 18.2897 12.4175 18.2763C12.4314 18.263 12.4479 18.2527 12.466 18.2458C12.484 18.239 12.5033 18.2358 12.5227 18.2365H12.819C12.8379 18.2361 12.8568 18.2395 12.8744 18.2463C12.892 18.2531 12.9081 18.2633 12.9217 18.2763C12.9355 18.2897 12.9462 18.3058 12.9532 18.3235C12.9602 18.3413 12.9633 18.3603 12.9623 18.3793V19.4093H13.746C13.766 19.4083 13.7859 19.4116 13.8045 19.4189C13.8231 19.4261 13.8398 19.4373 13.8535 19.4515C13.8779 19.4795 13.8907 19.5154 13.8894 19.5521V19.7628C13.8912 19.7996 13.8783 19.8357 13.8535 19.8635C13.8398 19.8777 13.8231 19.8888 13.8045 19.8961C13.7859 19.9034 13.766 19.9066 13.746 19.9056H12.9623V21.4928C12.9533 21.6513 12.9889 21.8092 13.0651 21.9493C13.1031 22.0071 13.1567 22.0534 13.22 22.0832C13.2832 22.1129 13.3537 22.1249 13.4235 22.1179H13.8081C13.8472 22.117 13.885 22.1313 13.9133 22.1577C13.9268 22.1713 13.9374 22.1874 13.9444 22.2051C13.9513 22.2228 13.9546 22.2417 13.9539 22.2607V22.4948C13.9543 22.5133 13.9509 22.5318 13.9439 22.5491C13.9369 22.5664 13.9265 22.5821 13.9133 22.5954C13.8996 22.6089 13.8831 22.6194 13.865 22.6263C13.8469 22.6331 13.8275 22.6362 13.8081 22.6352L13.3733 22.6306Z" fill="white"/>
<path d="M15.7363 22.6938C15.5373 22.6958 15.3404 22.6533 15.1605 22.5697C14.9959 22.4933 14.8531 22.3783 14.7448 22.2349C14.6419 22.0997 14.5865 21.9354 14.5871 21.7667C14.5836 21.6337 14.6141 21.5018 14.6758 21.3833C14.7376 21.2647 14.8286 21.1631 14.9407 21.0878C15.2145 20.9037 15.5305 20.7887 15.8606 20.7531L16.802 20.6243V20.4441C16.8077 20.3584 16.7951 20.2726 16.7651 20.192C16.7351 20.1114 16.6882 20.0378 16.6276 19.9759C16.4686 19.8512 16.2665 19.7916 16.0637 19.8097C15.9047 19.8032 15.7472 19.8413 15.6097 19.9197C15.5008 19.9872 15.417 20.0874 15.3708 20.2053C15.3615 20.2326 15.3435 20.2563 15.3194 20.2727C15.2952 20.2892 15.2663 20.2975 15.237 20.2966H14.955C14.9356 20.2984 14.9159 20.2957 14.8977 20.2888C14.8795 20.2819 14.8631 20.2709 14.8499 20.2568C14.8267 20.2301 14.8148 20.1958 14.8164 20.1608C14.8208 20.0783 14.8454 19.998 14.8881 19.9267C14.9447 19.8244 15.021 19.7337 15.1127 19.6598C15.2278 19.5651 15.3588 19.4906 15.4998 19.4398C15.6855 19.3762 15.8814 19.3461 16.078 19.3508C16.294 19.3457 16.5092 19.3782 16.7136 19.4468C16.8683 19.4991 17.0077 19.5874 17.1198 19.7043C17.2185 19.8078 17.2921 19.9318 17.3348 20.0672C17.3795 20.2009 17.4021 20.3408 17.4017 20.4815V22.4854C17.4021 22.504 17.3987 22.5225 17.3917 22.5397C17.3847 22.557 17.3743 22.5728 17.3611 22.5861C17.3474 22.5996 17.331 22.6101 17.3128 22.6169C17.2947 22.6238 17.2754 22.6268 17.256 22.6259H16.9669C16.947 22.6277 16.927 22.625 16.9084 22.6181C16.8898 22.6112 16.873 22.6003 16.8593 22.5861C16.8464 22.5727 16.8364 22.5568 16.8298 22.5395C16.8233 22.5223 16.8203 22.5039 16.8211 22.4854V22.2185C16.7579 22.301 16.684 22.3749 16.6013 22.4386C16.4964 22.5172 16.3783 22.5774 16.2524 22.6165C16.088 22.668 15.9161 22.6925 15.7435 22.6891M15.8749 22.2209C16.041 22.2231 16.2051 22.1853 16.3528 22.1109C16.4988 22.0376 16.617 21.9202 16.6897 21.7761C16.7787 21.597 16.8214 21.3993 16.8139 21.2002V21.027L16.0828 21.1323C15.8453 21.1543 15.615 21.2245 15.4066 21.3383C15.3391 21.3751 15.2826 21.4287 15.2427 21.4936C15.2029 21.5585 15.1812 21.6325 15.1796 21.7082C15.175 21.8132 15.2128 21.9158 15.2847 21.9938C15.3561 22.0717 15.4466 22.1306 15.5476 22.1647C15.6542 22.2019 15.7665 22.2209 15.8797 22.2209" fill="white"/>
<path d="M18.6969 22.6306C18.6775 22.6315 18.6581 22.6284 18.64 22.6216C18.6219 22.6147 18.6054 22.6042 18.5917 22.5908C18.5785 22.5774 18.5681 22.5617 18.5611 22.5444C18.5541 22.5271 18.5507 22.5087 18.5511 22.4901V18.3863C18.5501 18.3673 18.5531 18.3483 18.5601 18.3305C18.567 18.3127 18.5777 18.2966 18.5915 18.2831C18.6052 18.2696 18.6217 18.2591 18.6399 18.2523C18.658 18.2455 18.6774 18.2425 18.6969 18.2435H18.9931C19.0129 18.2427 19.0326 18.2457 19.0511 18.2526C19.0695 18.2594 19.0864 18.2699 19.1006 18.2833C19.1258 18.3119 19.1394 18.3485 19.1389 18.3863V22.4901C19.1395 22.5272 19.1259 22.5631 19.1006 22.5908C19.0868 22.6047 19.07 22.6154 19.0514 22.6223C19.0328 22.6292 19.0129 22.632 18.9931 22.6306H18.6969Z" fill="white"/>
<path d="M23.1625 22.6306C23.1431 22.6315 23.1237 22.6285 23.1056 22.6216C23.0875 22.6147 23.0711 22.6042 23.0574 22.5908C23.0441 22.5775 23.0337 22.5617 23.0267 22.5444C23.0198 22.5271 23.0164 22.5087 23.0167 22.4901V18.8545H21.8053C21.7863 18.8552 21.7674 18.852 21.7497 18.8452C21.732 18.8383 21.7159 18.828 21.7025 18.8148C21.689 18.8017 21.6785 18.7859 21.6715 18.7686C21.6646 18.7512 21.6613 18.7327 21.662 18.7141V18.4542C21.6603 18.4344 21.6631 18.4145 21.6701 18.3959C21.6771 18.3773 21.6882 18.3605 21.7026 18.3465C21.7157 18.3328 21.7317 18.3219 21.7494 18.3147C21.7671 18.3074 21.7861 18.3039 21.8053 18.3044H24.847C24.8673 18.3034 24.8876 18.3066 24.9066 18.3139C24.9255 18.3211 24.9427 18.3323 24.9569 18.3465C24.9713 18.3605 24.9824 18.3773 24.9894 18.3959C24.9964 18.4145 24.9992 18.4344 24.9975 18.4542V18.7141C24.9984 18.7327 24.9953 18.7513 24.9883 18.7687C24.9813 18.786 24.9706 18.8017 24.9569 18.8147C24.9425 18.8286 24.9252 18.8393 24.9063 18.8461C24.8873 18.853 24.8671 18.8558 24.847 18.8545H23.6523V22.4901C23.6528 22.5089 23.6492 22.5276 23.6418 22.5449C23.6344 22.5623 23.6233 22.5779 23.6093 22.5908C23.5951 22.6049 23.5778 22.6157 23.5588 22.6226C23.5399 22.6295 23.5196 22.6322 23.4994 22.6306H23.1625Z" fill="white"/>
<path d="M25.5088 22.6305C25.4898 22.6318 25.4707 22.6289 25.4529 22.622C25.4351 22.6151 25.4192 22.6044 25.4061 22.5907C25.3921 22.5779 25.381 22.5623 25.3736 22.5449C25.3662 22.5276 25.3626 22.5089 25.3631 22.4901V19.5732C25.3625 19.5537 25.3661 19.5343 25.3735 19.5161C25.3809 19.498 25.392 19.4816 25.4061 19.4678C25.4189 19.4536 25.4347 19.4422 25.4525 19.4345C25.4702 19.4269 25.4894 19.423 25.5088 19.4234H25.8003C25.82 19.4234 25.8395 19.4274 25.8576 19.4351C25.8756 19.4427 25.8919 19.4539 25.9055 19.4678C25.9204 19.4811 25.9322 19.4974 25.94 19.5156C25.9479 19.5338 25.9516 19.5535 25.9509 19.5732V19.8447C26.0314 19.7078 26.1521 19.5977 26.2973 19.5287C26.4656 19.4554 26.6484 19.4194 26.8325 19.4234H27.0715C27.0911 19.4226 27.1106 19.4259 27.1287 19.4332C27.1469 19.4404 27.1632 19.4515 27.1766 19.4655C27.1898 19.4788 27.2002 19.4946 27.2072 19.5118C27.2142 19.5291 27.2176 19.5476 27.2172 19.5662V19.8073C27.2179 19.8259 27.2146 19.8444 27.2076 19.8618C27.2006 19.8791 27.1901 19.8948 27.1766 19.908C27.1477 19.933 27.1101 19.9464 27.0715 19.9454H26.694C26.5959 19.9402 26.4978 19.9547 26.4058 19.9881C26.3137 20.0215 26.2296 20.0731 26.1587 20.1397C26.0909 20.2096 26.0385 20.2925 26.0048 20.3831C25.9711 20.4737 25.9568 20.5702 25.9628 20.6664V22.4854C25.9635 22.5044 25.9597 22.5234 25.9519 22.5408C25.944 22.5583 25.9322 22.5737 25.9174 22.5861C25.9033 22.5996 25.8864 22.6101 25.8679 22.617C25.8494 22.6238 25.8297 22.6268 25.8099 22.6259L25.5088 22.6305Z" fill="white"/>
<path d="M28.8779 22.6938C28.6796 22.696 28.4834 22.6535 28.3044 22.5697C28.1387 22.4941 27.995 22.379 27.8863 22.2349C27.7834 22.0997 27.7281 21.9354 27.7286 21.7667C27.7255 21.6337 27.7562 21.5021 27.818 21.3836C27.8797 21.2651 27.9705 21.1634 28.0822 21.0878C28.3567 20.9033 28.6736 20.7883 29.0045 20.7531L29.9435 20.6243V20.4441C29.9492 20.3584 29.9367 20.2726 29.9066 20.192C29.8766 20.1114 29.8298 20.0378 29.7691 19.9759C29.6101 19.8512 29.408 19.7916 29.2052 19.8097C29.0463 19.8035 28.8889 19.8417 28.7512 19.9197C28.643 19.988 28.5594 20.0879 28.5123 20.2053C28.5039 20.2326 28.4864 20.2564 28.4626 20.273C28.4388 20.2895 28.41 20.2978 28.3809 20.2966H28.0894C28.0699 20.2984 28.0503 20.2957 28.0321 20.2888C28.0138 20.2819 27.9975 20.2709 27.9843 20.2568C27.9621 20.2296 27.9502 20.1956 27.9508 20.1608C27.9552 20.0783 27.9798 19.998 28.0225 19.9267C28.0798 19.8249 28.156 19.7343 28.2471 19.6598C28.3622 19.5651 28.4931 19.4906 28.6342 19.4398C28.8199 19.3764 29.0158 19.3463 29.2124 19.3508C29.4284 19.3457 29.6436 19.3782 29.848 19.4468C30.0031 19.4996 30.1431 19.5879 30.2565 19.7043C30.3539 19.8084 30.4266 19.9323 30.4692 20.0672C30.5138 20.2009 30.5364 20.3408 30.5361 20.4815V22.4854C30.5365 22.504 30.533 22.5225 30.5261 22.5397C30.5191 22.557 30.5087 22.5728 30.4955 22.5861C30.4819 22.5997 30.4654 22.6103 30.4473 22.6171C30.4292 22.624 30.4097 22.627 30.3903 22.6259H30.1012C30.0814 22.6273 30.0615 22.6245 30.043 22.6176C30.0244 22.6108 30.0076 22.6 29.9937 22.5861C29.9685 22.5584 29.9549 22.5225 29.9555 22.4854V22.2185C29.893 22.3015 29.819 22.3756 29.7357 22.4386C29.6313 22.5168 29.5142 22.577 29.3892 22.6165C29.224 22.668 29.0512 22.6925 28.8779 22.6891M29.0093 22.2209C29.1754 22.2231 29.3395 22.1853 29.4872 22.1109C29.6332 22.0376 29.7513 21.9202 29.8241 21.7761C29.9131 21.597 29.9558 21.3993 29.9483 21.2002V21.027L29.2172 21.1323C28.9797 21.1547 28.7495 21.2248 28.541 21.3383C28.4734 21.3751 28.4169 21.4287 28.3771 21.4936C28.3373 21.5585 28.3155 21.6325 28.314 21.7082C28.3107 21.813 28.3483 21.9152 28.4191 21.9938C28.4909 22.0723 28.5823 22.1312 28.6843 22.1647C28.7901 22.2019 28.9017 22.2209 29.0141 22.2209" fill="white"/>
<path d="M31.843 22.6306C31.8236 22.6317 31.8042 22.6287 31.7861 22.6218C31.7679 22.6149 31.7515 22.6044 31.7379 22.5908C31.7247 22.5774 31.7143 22.5617 31.7073 22.5444C31.7003 22.5271 31.6969 22.5087 31.6973 22.4901V19.5592C31.6969 19.5406 31.7003 19.5221 31.7073 19.5048C31.7143 19.4876 31.7247 19.4718 31.7379 19.4585C31.7513 19.4445 31.7676 19.4334 31.7858 19.4262C31.8039 19.4189 31.8235 19.4156 31.843 19.4164H32.1393C32.1585 19.4159 32.1776 19.4194 32.1953 19.4267C32.213 19.4339 32.2289 19.4448 32.2421 19.4585C32.2558 19.4715 32.2665 19.4872 32.2735 19.5045C32.2805 19.5219 32.2836 19.5405 32.2827 19.5592V19.8307C32.4055 19.6739 32.566 19.5491 32.7497 19.4674C32.9335 19.3858 33.135 19.3497 33.3364 19.3625C33.5813 19.3549 33.8232 19.4158 34.0341 19.5381C34.2249 19.6558 34.3761 19.826 34.4689 20.0274C34.5686 20.2533 34.6175 20.4976 34.6123 20.7437V22.4878C34.6127 22.5063 34.6093 22.5248 34.6023 22.5421C34.5953 22.5593 34.5849 22.5751 34.5717 22.5884C34.5581 22.602 34.5417 22.6126 34.5235 22.6195C34.5054 22.6263 34.486 22.6293 34.4666 22.6282H34.1512C34.1322 22.6289 34.1132 22.6257 34.0955 22.6189C34.0778 22.612 34.0618 22.6017 34.0483 22.5885C34.0349 22.5754 34.0243 22.5596 34.0174 22.5423C34.0104 22.5249 34.0071 22.5064 34.0078 22.4878V20.7741C34.0224 20.5305 33.946 20.29 33.7928 20.0976C33.7117 20.0154 33.6132 19.9518 33.5041 19.9113C33.3951 19.8709 33.2782 19.8545 33.162 19.8635C33.0464 19.8575 32.9308 19.8752 32.8225 19.9155C32.7143 19.9558 32.6159 20.0179 32.5336 20.0976C32.3656 20.2832 32.2797 20.5265 32.2946 20.7741V22.4878C32.2953 22.5064 32.292 22.5249 32.2851 22.5423C32.2781 22.5596 32.2676 22.5754 32.2541 22.5885C32.2407 22.6017 32.2246 22.612 32.2069 22.6189C32.1892 22.6257 32.1703 22.6289 32.1513 22.6282L31.843 22.6306Z" fill="white"/>
<path d="M36.906 22.6937C36.701 22.6974 36.4968 22.6682 36.3015 22.6071C36.1536 22.5597 36.0147 22.4885 35.8905 22.3964C35.7967 22.328 35.7159 22.244 35.6516 22.1483C35.6082 22.0902 35.5796 22.0227 35.568 21.9516C35.5647 21.9319 35.567 21.9117 35.5746 21.8931C35.5821 21.8746 35.5947 21.8584 35.611 21.8463C35.639 21.8229 35.6745 21.8096 35.7113 21.8088H35.9957C36.0138 21.8051 36.0325 21.8051 36.0506 21.8088C36.0738 21.823 36.094 21.8413 36.1104 21.8627C36.1653 21.9189 36.2251 21.9774 36.292 22.0336C36.3624 22.0946 36.4433 22.1429 36.5309 22.1764C36.8276 22.2702 37.15 22.2467 37.4293 22.1108C37.4943 22.077 37.5483 22.0259 37.5851 21.9634C37.6219 21.9009 37.6399 21.8294 37.6372 21.7573C37.642 21.6669 37.6112 21.5781 37.5511 21.5092C37.4648 21.4311 37.3608 21.3742 37.2477 21.343C37.0526 21.2802 36.854 21.2286 36.6528 21.1885C36.4434 21.146 36.2415 21.0743 36.053 20.9754C35.9209 20.9049 35.8117 20.7994 35.7376 20.6711C35.6741 20.5478 35.6421 20.4112 35.6444 20.2731C35.6457 20.1156 35.6939 19.9618 35.783 19.8307C35.8843 19.6811 36.0246 19.5607 36.1892 19.4819C36.3985 19.3841 36.6289 19.3375 36.8606 19.3461C37.051 19.3426 37.2406 19.3695 37.4221 19.4257C37.561 19.471 37.6911 19.5391 37.8068 19.627C37.8945 19.6929 37.9711 19.7719 38.0338 19.8611C38.0768 19.9192 38.1046 19.9867 38.115 20.0578C38.118 20.0765 38.1163 20.0956 38.1101 20.1136C38.1038 20.1315 38.0932 20.1477 38.0792 20.1608C38.0511 20.1859 38.0145 20.2001 37.9764 20.2006H37.7184C37.6932 20.2011 37.6683 20.1946 37.6467 20.1818C37.6276 20.1698 37.61 20.1557 37.5942 20.1397C37.5481 20.083 37.4987 20.029 37.446 19.9782C37.3815 19.9199 37.306 19.8746 37.2238 19.8447C37.1094 19.8062 36.9887 19.7888 36.8678 19.7932C36.6979 19.7791 36.5285 19.8248 36.3899 19.922C36.3399 19.9612 36.2997 20.0111 36.2723 20.0679C36.245 20.1248 36.2313 20.1869 36.2322 20.2497C36.2314 20.3255 36.2557 20.3994 36.3015 20.4604C36.3727 20.5386 36.4644 20.5961 36.5667 20.6266C36.7566 20.6923 36.9505 20.7463 37.1473 20.7882C37.3758 20.8257 37.5968 20.8983 37.802 21.0035C37.9431 21.0766 38.0612 21.1858 38.1437 21.3196C38.2126 21.4471 38.2472 21.5897 38.2441 21.7339C38.2434 21.9013 38.191 22.0646 38.0935 22.2021C37.9793 22.3574 37.8216 22.4769 37.6396 22.5463C37.4021 22.6366 37.1487 22.6796 36.8941 22.6727" fill="white"/>
<path d="M39.7063 22.6305C39.6873 22.6312 39.6684 22.628 39.6507 22.6212C39.633 22.6143 39.6169 22.604 39.6035 22.5909C39.59 22.5777 39.5795 22.5619 39.5725 22.5446C39.5655 22.5273 39.5623 22.5087 39.563 22.4901V19.915H39.0254C39.0062 19.9154 38.9871 19.9119 38.9694 19.9047C38.9517 19.8974 38.9357 19.8866 38.9226 19.8728C38.9087 19.8601 38.8978 19.8444 38.8908 19.827C38.8837 19.8096 38.8807 19.7908 38.882 19.7722V19.5615C38.8811 19.5428 38.8842 19.5242 38.8912 19.5068C38.8982 19.4895 38.9089 19.4738 38.9226 19.4608C38.9357 19.4471 38.9517 19.4362 38.9694 19.429C38.9871 19.4217 39.0062 19.4182 39.0254 19.4187H39.563V19.105C39.5589 18.9147 39.5956 18.7257 39.6705 18.5502C39.7407 18.3946 39.8606 18.2656 40.0122 18.1826C40.2096 18.0879 40.4282 18.0436 40.6477 18.0539H41.0252C41.0446 18.0529 41.064 18.056 41.0821 18.0628C41.1002 18.0697 41.1167 18.0802 41.1304 18.0937C41.1436 18.107 41.154 18.1227 41.161 18.14C41.168 18.1573 41.1714 18.1757 41.171 18.1943V18.405C41.172 18.424 41.169 18.4431 41.162 18.4608C41.155 18.4786 41.1443 18.4948 41.1306 18.5082C41.1169 18.5217 41.1004 18.5322 41.0822 18.539C41.0641 18.5458 41.0447 18.5488 41.0252 18.5478H40.6597C40.5848 18.5389 40.5088 18.5481 40.4384 18.5746C40.368 18.6012 40.3053 18.6442 40.2559 18.7C40.176 18.8312 40.1385 18.983 40.1484 19.1354V19.4117H40.9631C40.9823 19.4112 41.0014 19.4147 41.0191 19.422C41.0368 19.4292 41.0527 19.4401 41.0659 19.4538C41.0796 19.4668 41.0903 19.4825 41.0973 19.4998C41.1043 19.5172 41.1074 19.5358 41.1065 19.5544V19.7651C41.1077 19.7838 41.1047 19.8025 41.0977 19.82C41.0907 19.8374 41.0798 19.853 41.0659 19.8658C41.0527 19.8795 41.0368 19.8904 41.0191 19.8976C41.0014 19.9049 40.9823 19.9084 40.9631 19.9079H40.1484V22.4831C40.149 22.5017 40.1458 22.5202 40.1388 22.5376C40.1318 22.5549 40.1213 22.5707 40.1078 22.5838C40.0944 22.597 40.0783 22.6073 40.0606 22.6142C40.0429 22.621 40.024 22.6242 40.005 22.6235L39.7063 22.6305Z" fill="white"/>
<path d="M43.1948 22.6938C42.9165 22.7027 42.6407 22.6406 42.3943 22.5135C42.1846 22.3983 42.0136 22.2259 41.9021 22.0172C41.7854 21.7911 41.721 21.5425 41.7134 21.2892C41.7134 21.2189 41.7134 21.13 41.7134 21.0223C41.7134 20.9123 41.7134 20.8256 41.7134 20.7578C41.7199 20.504 41.7853 20.255 41.9045 20.0297C42.0187 19.822 42.1911 19.6506 42.4015 19.5358C42.6488 19.4171 42.9206 19.3554 43.196 19.3554C43.4714 19.3554 43.7431 19.4171 43.9904 19.5358C44.2007 19.65 44.3725 19.8216 44.485 20.0297C44.605 20.2549 44.6712 20.5038 44.6786 20.7578C44.6786 20.8256 44.6786 20.9123 44.6786 21.0223C44.6786 21.1323 44.6786 21.2189 44.6786 21.2892C44.6698 21.5423 44.6055 21.7907 44.4898 22.0172C44.3776 22.2254 44.2068 22.3977 43.9976 22.5135C43.7505 22.6409 43.4738 22.703 43.1948 22.6938ZM43.1948 22.2256C43.3101 22.2323 43.4256 22.2148 43.5335 22.1745C43.6414 22.1341 43.7393 22.0717 43.8208 21.9915C43.9834 21.7928 44.0681 21.5437 44.0597 21.2892C44.0597 21.2283 44.0597 21.1487 44.0597 21.0551C44.0597 20.9614 44.0597 20.8818 44.0597 20.821C44.071 20.5625 43.9861 20.3087 43.8208 20.107C43.6523 19.949 43.428 19.8608 43.1948 19.8608C42.9615 19.8608 42.7373 19.949 42.5688 20.107C42.3971 20.306 42.3077 20.5606 42.3179 20.821C42.3179 20.8818 42.3179 20.9591 42.3179 21.0551C42.3179 21.151 42.3179 21.2283 42.3179 21.2892C42.3106 21.5455 42.3999 21.7955 42.5688 21.9915C42.6503 22.0716 42.7482 22.1339 42.8562 22.1743C42.9641 22.2146 43.0795 22.2321 43.1948 22.2256Z" fill="white"/>
<path d="M45.8709 22.6305C45.8515 22.6315 45.8321 22.6284 45.814 22.6216C45.7959 22.6147 45.7795 22.6042 45.7658 22.5908C45.7525 22.5774 45.7421 22.5617 45.7352 22.5444C45.7282 22.5271 45.7248 22.5087 45.7251 22.4901V19.5732C45.7242 19.5342 45.7388 19.4964 45.7658 19.4678C45.7792 19.4537 45.7955 19.4425 45.8136 19.4349C45.8317 19.4272 45.8512 19.4233 45.8709 19.4234H46.16C46.1801 19.4233 46.1999 19.4271 46.2184 19.4348C46.2369 19.4424 46.2536 19.4537 46.2675 19.4678C46.2817 19.4816 46.2928 19.498 46.3002 19.5162C46.3076 19.5343 46.3111 19.5537 46.3105 19.5732V19.8447C46.3921 19.7077 46.5136 19.5976 46.6594 19.5287C46.8276 19.4552 47.0104 19.4192 47.1946 19.4234H47.4335C47.4531 19.4229 47.4725 19.4264 47.4906 19.4336C47.5087 19.4409 47.5251 19.4517 47.5387 19.4655C47.5519 19.4788 47.5623 19.4946 47.5693 19.5119C47.5762 19.5291 47.5796 19.5476 47.5793 19.5662V19.8073C47.5799 19.8259 47.5766 19.8444 47.5696 19.8618C47.5627 19.8791 47.5521 19.8948 47.5387 19.908C47.5095 19.9326 47.4721 19.9459 47.4335 19.9454H47.056C46.9576 19.9398 46.859 19.9542 46.7665 19.9876C46.674 20.0211 46.5896 20.0728 46.5184 20.1397C46.4515 20.2102 46.3997 20.2932 46.3661 20.3837C46.3324 20.4741 46.3176 20.5703 46.3225 20.6664V22.4854C46.323 22.5042 46.3194 22.5229 46.312 22.5402C46.3045 22.5576 46.2935 22.5732 46.2795 22.5861C46.2653 22.5996 46.2485 22.6101 46.23 22.617C46.2115 22.6238 46.1917 22.6269 46.1719 22.6259L45.8709 22.6305Z" fill="white"/>
<path d="M48.5183 22.6306C48.4993 22.6312 48.4803 22.628 48.4626 22.6212C48.4449 22.6144 48.4289 22.6041 48.4154 22.5909C48.402 22.5777 48.3914 22.562 48.3845 22.5446C48.3775 22.5273 48.3742 22.5087 48.3749 22.4901V19.5592C48.374 19.5405 48.3771 19.5219 48.3841 19.5045C48.3911 19.4872 48.4018 19.4715 48.4155 19.4585C48.4287 19.4448 48.4446 19.4339 48.4623 19.4267C48.48 19.4194 48.4991 19.4159 48.5183 19.4164H48.8026C48.8222 19.4159 48.8416 19.4193 48.8597 19.4266C48.8778 19.4338 48.8942 19.4447 48.9077 19.4585C48.921 19.4718 48.9314 19.4876 48.9383 19.5048C48.9453 19.5221 48.9487 19.5406 48.9484 19.5592V19.7769C49.0445 19.6484 49.1696 19.5435 49.3139 19.4702C49.4783 19.3895 49.6606 19.35 49.8444 19.3555C50.0526 19.3375 50.2615 19.3824 50.4431 19.4841C50.6246 19.5858 50.77 19.7394 50.8598 19.9244C50.9586 19.7503 51.1051 19.6068 51.2828 19.51C51.4754 19.4049 51.6931 19.3516 51.9135 19.3555C52.122 19.3525 52.3274 19.4043 52.5085 19.5053C52.6925 19.6089 52.84 19.7648 52.9314 19.9524C53.0424 20.1876 53.0956 20.445 53.0867 20.7039V22.4901C53.0871 22.5087 53.0837 22.5271 53.0767 22.5444C53.0697 22.5617 53.0593 22.5775 53.0461 22.5908C53.0324 22.6042 53.016 22.6147 52.9978 22.6216C52.9797 22.6285 52.9604 22.6315 52.941 22.6306H52.6447C52.6257 22.6312 52.6067 22.628 52.589 22.6212C52.5714 22.6144 52.5553 22.6041 52.5418 22.5909C52.5284 22.5777 52.5178 22.562 52.5109 22.5446C52.5039 22.5273 52.5007 22.5087 52.5013 22.4901V20.7578C52.5094 20.5714 52.4743 20.3857 52.3986 20.2146C52.3428 20.0949 52.2478 19.9968 52.1286 19.9361C52.0121 19.8822 51.8846 19.855 51.7558 19.8565C51.6396 19.8577 51.5252 19.885 51.4213 19.9361C51.3004 19.9975 51.2025 20.0951 51.1418 20.2146C51.059 20.3838 51.0205 20.5704 51.0295 20.7578V22.4901C51.0302 22.5087 51.0269 22.5273 51.0199 22.5446C51.013 22.562 51.0024 22.5777 50.989 22.5909C50.9755 22.6041 50.9595 22.6144 50.9418 22.6212C50.9241 22.628 50.9051 22.6312 50.8861 22.6306H50.5898C50.5704 22.6317 50.551 22.6287 50.5329 22.6218C50.5147 22.615 50.4983 22.6044 50.4847 22.5908C50.4715 22.5775 50.4611 22.5617 50.4541 22.5444C50.4471 22.5271 50.4437 22.5087 50.4441 22.4901V20.7578C50.4531 20.5709 50.4162 20.3847 50.3366 20.2146C50.2768 20.0953 50.1797 19.9977 50.0594 19.9361C49.9469 19.883 49.8235 19.8558 49.6986 19.8565C49.5824 19.858 49.4681 19.8852 49.3641 19.9361C49.2436 19.9982 49.1459 20.0956 49.0846 20.2146C49.0029 20.3824 48.9652 20.5674 48.9746 20.7531V22.4901C48.975 22.5087 48.9716 22.5271 48.9646 22.5444C48.9577 22.5617 48.9473 22.5775 48.934 22.5908C48.9203 22.6042 48.9039 22.6147 48.8858 22.6216C48.8677 22.6285 48.8483 22.6315 48.8289 22.6306H48.5183Z" fill="white"/>
<path d="M55.1607 22.6938C54.9624 22.696 54.7662 22.6535 54.5873 22.5697C54.4215 22.4941 54.2778 22.379 54.1691 22.2349C54.0663 22.0997 54.0109 21.9354 54.0114 21.7667C54.0084 21.6337 54.0391 21.5021 54.1008 21.3836C54.1625 21.2651 54.2533 21.1634 54.3651 21.0878C54.6395 20.9033 54.9564 20.7883 55.2874 20.7531L56.2264 20.6243V20.4441C56.2321 20.3584 56.2195 20.2726 56.1895 20.192C56.1594 20.1114 56.1126 20.0378 56.0519 19.9759C55.8929 19.8512 55.6909 19.7916 55.4881 19.8097C55.3292 19.8035 55.1717 19.8417 55.0341 19.9197C54.9258 19.988 54.8423 20.0879 54.7951 20.2053C54.7867 20.2326 54.7692 20.2564 54.7454 20.273C54.7216 20.2895 54.6929 20.2978 54.6637 20.2966H54.3794C54.3599 20.2982 54.3404 20.2954 54.3222 20.2885C54.304 20.2816 54.2876 20.2708 54.2743 20.2568C54.2521 20.2296 54.2402 20.1956 54.2408 20.1608C54.2452 20.0783 54.2698 19.998 54.3125 19.9267C54.3698 19.8249 54.446 19.7343 54.5371 19.6598C54.6522 19.5651 54.7831 19.4906 54.9242 19.4398C55.1099 19.3764 55.3058 19.3463 55.5024 19.3508C55.7184 19.3457 55.9336 19.3782 56.138 19.4468C56.2934 19.4991 56.4336 19.5874 56.5465 19.7043C56.6439 19.8084 56.7166 19.9323 56.7592 20.0672C56.8039 20.2009 56.8264 20.3408 56.8261 20.4815V22.4854C56.8265 22.504 56.8231 22.5225 56.8161 22.5397C56.8091 22.557 56.7987 22.5728 56.7855 22.5861C56.7719 22.5997 56.7554 22.6103 56.7373 22.6171C56.7192 22.624 56.6998 22.627 56.6803 22.6259H56.3912C56.3714 22.6273 56.3516 22.6245 56.333 22.6176C56.3144 22.6108 56.2976 22.6 56.2837 22.5861C56.2585 22.5584 56.2449 22.5225 56.2455 22.4854V22.2185C56.183 22.3015 56.109 22.3756 56.0257 22.4386C55.9214 22.5168 55.8042 22.577 55.6792 22.6165C55.514 22.668 55.3412 22.6925 55.1679 22.6891M55.2993 22.2209C55.4654 22.2231 55.6295 22.1853 55.7772 22.1109C55.9234 22.0371 56.0422 21.9199 56.1165 21.7761C56.2035 21.5964 56.2453 21.399 56.2383 21.2002V21.027L55.5072 21.1323C55.2697 21.1547 55.0395 21.2248 54.831 21.3383C54.7634 21.3751 54.7069 21.4287 54.6671 21.4936C54.6273 21.5585 54.6055 21.6325 54.604 21.7082C54.6007 21.813 54.6383 21.9152 54.7091 21.9938C54.7809 22.0723 54.8723 22.1312 54.9743 22.1647C55.0801 22.2019 55.1917 22.2209 55.3041 22.2209" fill="white"/>
<path d="M59.2227 22.6306C59.0218 22.6391 58.8225 22.5929 58.6468 22.4971C58.501 22.4102 58.3884 22.2785 58.3266 22.1226C58.2559 21.9378 58.2219 21.7416 58.2263 21.5443V19.9056H57.7341C57.7145 19.9061 57.6951 19.9027 57.677 19.8954C57.6589 19.8881 57.6425 19.8773 57.6289 19.8635C57.6155 19.8503 57.6049 19.8346 57.598 19.8173C57.591 19.8 57.5877 19.7814 57.5883 19.7628V19.5521C57.588 19.5336 57.5914 19.5151 57.5983 19.4978C57.6053 19.4805 57.6157 19.4648 57.6289 19.4515C57.6425 19.4377 57.6589 19.4268 57.677 19.4196C57.6951 19.4123 57.7145 19.4088 57.7341 19.4093H58.2263V18.3793C58.2253 18.3603 58.2284 18.3413 58.2354 18.3236C58.2424 18.3058 58.2532 18.2897 58.2669 18.2763C58.2805 18.2633 58.2966 18.2531 58.3142 18.2463C58.3318 18.2395 58.3507 18.2361 58.3697 18.2365H58.6659C58.6853 18.2355 58.7048 18.2385 58.7229 18.2453C58.7411 18.2521 58.7575 18.2626 58.7713 18.2761C58.785 18.2895 58.7957 18.3057 58.8027 18.3235C58.8097 18.3413 58.8127 18.3603 58.8117 18.3793V19.4093H59.593C59.613 19.4078 59.6331 19.4109 59.6518 19.4182C59.6704 19.4255 59.6871 19.4369 59.7005 19.4515C59.7134 19.4649 59.7235 19.4807 59.73 19.498C59.7366 19.5153 59.7396 19.5337 59.7388 19.5521V19.7628C59.7398 19.7813 59.737 19.7998 59.7304 19.8171C59.7239 19.8344 59.7137 19.8502 59.7005 19.8635C59.6871 19.8781 59.6704 19.8895 59.6518 19.8968C59.6331 19.9041 59.613 19.9071 59.593 19.9056H58.8117V21.4928C58.8033 21.651 58.8379 21.8086 58.912 21.9493C58.9506 22.0071 59.0047 22.0534 59.0683 22.0831C59.132 22.1128 59.2027 22.1249 59.2728 22.1179H59.6575C59.6765 22.1175 59.6953 22.1209 59.713 22.1277C59.7306 22.1345 59.7467 22.1447 59.7603 22.1577C59.7746 22.1708 59.7858 22.1868 59.7932 22.2046C59.8007 22.2224 59.8041 22.2415 59.8033 22.2607V22.4948C59.8037 22.5136 59.8002 22.5323 59.7927 22.5496C59.7853 22.567 59.7743 22.5826 59.7603 22.5954C59.747 22.6089 59.731 22.6194 59.7133 22.6262C59.6956 22.6331 59.6765 22.6362 59.6575 22.6353L59.2227 22.6306Z" fill="white"/>
<path d="M60.7494 18.8171C60.7304 18.818 60.7114 18.8149 60.6937 18.808C60.676 18.8012 60.6599 18.7907 60.6467 18.7773C60.6327 18.7644 60.6216 18.7488 60.6142 18.7314C60.6068 18.7141 60.6032 18.6954 60.6037 18.6766V18.3418C60.6034 18.3025 60.6188 18.2647 60.6467 18.2365C60.6598 18.2228 60.6758 18.2119 60.6935 18.2047C60.7112 18.1974 60.7302 18.1939 60.7494 18.1943H61.1461C61.166 18.194 61.1859 18.1976 61.2044 18.2049C61.2229 18.2122 61.2398 18.223 61.2541 18.2367C61.2683 18.2504 61.2796 18.2668 61.2873 18.2848C61.295 18.3029 61.299 18.3223 61.299 18.3418V18.6766C61.2996 18.6956 61.2959 18.7146 61.2881 18.732C61.2802 18.7494 61.2684 18.7649 61.2536 18.7773C61.2394 18.7908 61.2226 18.8013 61.2041 18.8082C61.1856 18.815 61.1658 18.8181 61.1461 18.8171H60.7494ZM60.7996 22.6306C60.7806 22.6312 60.7617 22.628 60.744 22.6212C60.7263 22.6144 60.7102 22.6041 60.6968 22.5909C60.6833 22.5777 60.6728 22.5619 60.6658 22.5446C60.6588 22.5273 60.6556 22.5087 60.6562 22.4901V19.5592C60.6553 19.5405 60.6585 19.5219 60.6655 19.5045C60.6725 19.4872 60.6832 19.4715 60.6969 19.4585C60.71 19.4448 60.7259 19.4339 60.7436 19.4267C60.7613 19.4194 60.7804 19.4159 60.7996 19.4164H61.1031C61.1226 19.4159 61.142 19.4193 61.1601 19.4266C61.1782 19.4338 61.1946 19.4447 61.2082 19.4585C61.2214 19.4718 61.2318 19.4876 61.2388 19.5048C61.2458 19.5221 61.2492 19.5406 61.2488 19.5592V22.4901C61.2492 22.5087 61.2458 22.5271 61.2388 22.5444C61.2318 22.5617 61.2214 22.5775 61.2082 22.5908C61.1945 22.6042 61.178 22.6147 61.1599 22.6216C61.1418 22.6285 61.1224 22.6315 61.1031 22.6306H60.7996Z" fill="white"/>
<path d="M63.7767 22.6938C63.4984 22.703 63.2225 22.6409 62.9763 22.5135C62.7666 22.3983 62.5955 22.2259 62.484 22.0172C62.3673 21.7911 62.3029 21.5425 62.2953 21.2892C62.2953 21.2189 62.2953 21.13 62.2953 21.0223C62.2953 20.9123 62.2953 20.8256 62.2953 20.7578C62.3018 20.504 62.3672 20.255 62.4864 20.0297C62.6006 19.822 62.773 19.6506 62.9834 19.5358C63.2307 19.4171 63.5025 19.3554 63.7779 19.3554C64.0533 19.3554 64.325 19.4171 64.5723 19.5358C64.7826 19.65 64.9544 19.8216 65.0669 20.0297C65.1858 20.2553 65.252 20.504 65.2605 20.7578C65.2605 20.8256 65.2605 20.9123 65.2605 21.0223C65.2605 21.1323 65.2605 21.2189 65.2605 21.2892C65.2522 21.5427 65.1869 21.7912 65.0693 22.0172C64.9587 22.2257 64.7885 22.3982 64.5795 22.5135C64.3324 22.6409 64.0557 22.703 63.7767 22.6938ZM63.7767 22.2256C63.892 22.2321 64.0074 22.2146 64.1153 22.1743C64.2232 22.1339 64.3212 22.0716 64.4027 21.9915C64.5696 21.7944 64.6586 21.5452 64.6536 21.2892C64.6536 21.2283 64.6536 21.1487 64.6536 21.0551C64.6536 20.9614 64.6536 20.8818 64.6536 20.821C64.6615 20.561 64.5723 20.3071 64.4027 20.107C64.2342 19.949 64.0099 19.8608 63.7767 19.8608C63.5435 19.8608 63.3192 19.949 63.1507 20.107C62.9791 20.306 62.8896 20.5606 62.8998 20.821C62.8998 20.8818 62.8998 20.9591 62.8998 21.0551C62.8998 21.151 62.8998 21.2283 62.8998 21.2892C62.8926 21.5455 62.9819 21.7955 63.1507 21.9915C63.2322 22.0716 63.3302 22.1339 63.4381 22.1743C63.546 22.2146 63.6614 22.2321 63.7767 22.2256Z" fill="white"/>
<path d="M66.4528 22.6306C66.4334 22.6317 66.414 22.6287 66.3958 22.6218C66.3777 22.6149 66.3613 22.6044 66.3477 22.5908C66.3344 22.5774 66.324 22.5617 66.3171 22.5444C66.3101 22.5271 66.3067 22.5087 66.307 22.4901V19.5592C66.3067 19.5406 66.3101 19.5221 66.3171 19.5048C66.324 19.4876 66.3344 19.4718 66.3477 19.4585C66.3611 19.4445 66.3774 19.4334 66.3955 19.4262C66.4137 19.4189 66.4332 19.4156 66.4528 19.4164H66.7491C66.7683 19.4159 66.7873 19.4194 66.805 19.4267C66.8227 19.4339 66.8387 19.4448 66.8518 19.4585C66.8655 19.4715 66.8762 19.4872 66.8832 19.5045C66.8902 19.5219 66.8934 19.5405 66.8924 19.5592V19.8307C67.0153 19.6739 67.1757 19.5491 67.3595 19.4674C67.5433 19.3858 67.7448 19.3497 67.9461 19.3625C68.191 19.3549 68.433 19.4158 68.6438 19.5381C68.8346 19.6558 68.9859 19.826 69.0787 20.0274C69.1814 20.2558 69.2319 20.5035 69.2268 20.7531V22.4971C69.2272 22.5157 69.2238 22.5342 69.2168 22.5514C69.2098 22.5687 69.1994 22.5845 69.1862 22.5978C69.1726 22.6114 69.1562 22.622 69.138 22.6288C69.1199 22.6357 69.1005 22.6387 69.0811 22.6376H68.7657C68.7467 22.6382 68.7277 22.6351 68.71 22.6282C68.6923 22.6214 68.6763 22.6111 68.6628 22.5979C68.6494 22.5847 68.6388 22.569 68.6319 22.5516C68.6249 22.5343 68.6217 22.5157 68.6223 22.4971V20.7835C68.6369 20.5399 68.5605 20.2994 68.4073 20.107C68.3263 20.0248 68.2277 19.9612 68.1186 19.9207C68.0096 19.8802 67.8927 19.8639 67.7765 19.8729C67.6609 19.8669 67.5453 19.8846 67.4371 19.9249C67.3289 19.9652 67.2304 20.0272 67.1481 20.107C66.9801 20.2926 66.8942 20.5359 66.9092 20.7835V22.4971C66.9098 22.5157 66.9066 22.5343 66.8996 22.5516C66.8926 22.569 66.8821 22.5847 66.8686 22.5979C66.8552 22.6111 66.8391 22.6214 66.8214 22.6282C66.8037 22.6351 66.7848 22.6382 66.7658 22.6376L66.4528 22.6306Z" fill="white"/>
<path d="M72.9041 22.6305C72.8571 22.6332 72.811 22.6181 72.775 22.5884C72.7411 22.5541 72.7179 22.5111 72.7081 22.4643L71.8957 18.4846C71.8938 18.4706 71.8938 18.4565 71.8957 18.4425V18.4167C71.8956 18.4005 71.899 18.3844 71.9056 18.3695C71.9121 18.3546 71.9218 18.3412 71.934 18.3301C71.9574 18.3069 71.9891 18.2935 72.0224 18.2927H72.3497C72.4381 18.2927 72.4883 18.3278 72.5026 18.398L73.1454 21.5864L73.8263 19.4C73.8404 19.3611 73.8633 19.3259 73.8932 19.297C73.9114 19.2812 73.9326 19.2691 73.9555 19.2614C73.9785 19.2538 74.0028 19.2507 74.0271 19.2525H74.266C74.291 19.25 74.3162 19.2526 74.3401 19.2603C74.364 19.2679 74.3859 19.2804 74.4046 19.297C74.4323 19.326 74.452 19.3614 74.4619 19.4L75.15 21.5864L75.7737 18.4027C75.788 18.3325 75.8406 18.2973 75.9314 18.2973H76.2611C76.2944 18.2982 76.3261 18.3116 76.3495 18.3348C76.3725 18.358 76.3854 18.3891 76.3853 18.4214C76.3862 18.43 76.3862 18.4386 76.3853 18.4472C76.384 18.4612 76.384 18.4753 76.3853 18.4893L75.5706 22.469C75.5624 22.5158 75.5399 22.5591 75.5061 22.5931C75.469 22.6225 75.4222 22.6375 75.3746 22.6352H75.1357C75.0858 22.6379 75.0367 22.623 74.9971 22.5931C74.9636 22.5629 74.9395 22.5239 74.9278 22.4807L74.1465 20.1397L73.37 22.4807C73.3559 22.5234 73.3313 22.562 73.2983 22.5931C73.26 22.6236 73.2113 22.6387 73.1621 22.6352L72.9041 22.6305Z" fill="white"/>
<path d="M77.4772 18.8171C77.4582 18.818 77.4392 18.8149 77.4215 18.808C77.4037 18.8012 77.3877 18.7907 77.3745 18.7773C77.3605 18.7644 77.3494 18.7488 77.342 18.7314C77.3346 18.7141 77.331 18.6954 77.3315 18.6766V18.3418C77.3311 18.3025 77.3466 18.2647 77.3745 18.2365C77.3876 18.2228 77.4035 18.2119 77.4213 18.2047C77.439 18.1974 77.458 18.1939 77.4772 18.1943H77.8739C77.8938 18.194 77.9136 18.1976 77.9322 18.2049C77.9507 18.2122 77.9676 18.223 77.9818 18.2367C77.9961 18.2504 78.0074 18.2668 78.0151 18.2848C78.0228 18.3029 78.0268 18.3223 78.0268 18.3418V18.6766C78.0274 18.6956 78.0237 18.7146 78.0158 18.732C78.008 18.7494 77.9962 18.7649 77.9814 18.7773C77.9672 18.7908 77.9504 18.8013 77.9319 18.8082C77.9134 18.815 77.8936 18.8181 77.8739 18.8171H77.4772ZM77.5274 22.6306C77.5084 22.6312 77.4895 22.628 77.4718 22.6212C77.4541 22.6144 77.438 22.6041 77.4245 22.5909C77.4111 22.5777 77.4006 22.5619 77.3936 22.5446C77.3866 22.5273 77.3834 22.5087 77.384 22.4901V19.5592C77.3831 19.5405 77.3862 19.5219 77.3932 19.5045C77.4002 19.4872 77.411 19.4715 77.4247 19.4585C77.4378 19.4448 77.4537 19.4339 77.4714 19.4267C77.4891 19.4194 77.5082 19.4159 77.5274 19.4164H77.8308C77.8504 19.4159 77.8698 19.4193 77.8879 19.4266C77.906 19.4338 77.9224 19.4447 77.936 19.4585C77.9492 19.4718 77.9596 19.4876 77.9666 19.5048C77.9735 19.5221 77.977 19.5406 77.9766 19.5592V22.4901C77.977 22.5087 77.9735 22.5271 77.9666 22.5444C77.9596 22.5617 77.9492 22.5775 77.936 22.5908C77.9223 22.6042 77.9058 22.6147 77.8877 22.6216C77.8696 22.6285 77.8502 22.6315 77.8308 22.6306H77.5274Z" fill="white"/>
<path d="M80.4424 22.6305C80.2423 22.6394 80.0436 22.5932 79.8689 22.4971C79.7218 22.4109 79.6083 22.2791 79.5464 22.1226C79.4757 21.9378 79.4416 21.7416 79.446 21.5443V19.9056H78.9538C78.9343 19.9061 78.9148 19.9026 78.8967 19.8954C78.8786 19.8881 78.8623 19.8773 78.8487 19.8635C78.8352 19.8503 78.8247 19.8346 78.8177 19.8173C78.8107 19.8 78.8074 19.7814 78.8081 19.7628V19.5521C78.8077 19.5335 78.8111 19.5151 78.8181 19.4978C78.8251 19.4805 78.8355 19.4648 78.8487 19.4515C78.8623 19.4377 78.8786 19.4268 78.8967 19.4196C78.9148 19.4123 78.9343 19.4088 78.9538 19.4093H79.446V18.3793C79.4451 18.3603 79.4482 18.3413 79.4552 18.3235C79.4622 18.3058 79.4729 18.2897 79.4866 18.2763C79.5002 18.2633 79.5163 18.2531 79.534 18.2463C79.5516 18.2395 79.5704 18.2361 79.5894 18.2365H79.8881C79.907 18.2361 79.9259 18.2395 79.9435 18.2463C79.9611 18.2531 79.9772 18.2633 79.9908 18.2763C80.0046 18.2897 80.0153 18.3058 80.0223 18.3235C80.0293 18.3413 80.0324 18.3603 80.0314 18.3793V19.4093H80.8151C80.8348 19.408 80.8545 19.4111 80.8727 19.4185C80.8909 19.4258 80.9072 19.437 80.9203 19.4515C80.9332 19.4649 80.9432 19.4807 80.9498 19.498C80.9563 19.5153 80.9593 19.5337 80.9585 19.5521V19.7628C80.9596 19.7813 80.9567 19.7998 80.9502 19.8171C80.9436 19.8344 80.9334 19.8502 80.9203 19.8635C80.9072 19.8779 80.8909 19.8892 80.8727 19.8965C80.8545 19.9038 80.8348 19.9069 80.8151 19.9056H80.0314V21.4928C80.023 21.651 80.0576 21.8086 80.1318 21.9493C80.1706 22.0069 80.2247 22.053 80.2882 22.0827C80.3518 22.1124 80.4225 22.1246 80.4926 22.1179H80.8772C80.9163 22.117 80.9541 22.1313 80.9824 22.1577C80.9959 22.1713 81.0065 22.1874 81.0135 22.2051C81.0204 22.2228 81.0237 22.2417 81.023 22.2607V22.4948C81.0234 22.5133 81.0199 22.5318 81.013 22.5491C81.006 22.5664 80.9956 22.5821 80.9824 22.5954C80.9687 22.6089 80.9522 22.6194 80.9341 22.6263C80.916 22.6331 80.8966 22.6362 80.8772 22.6352L80.4424 22.6305Z" fill="white"/>
<path d="M82.0314 22.6306C82.0124 22.6318 81.9933 22.6289 81.9755 22.622C81.9577 22.6151 81.9417 22.6044 81.9287 22.5908C81.9147 22.5779 81.9036 22.5623 81.8962 22.5449C81.8888 22.5276 81.8852 22.5089 81.8857 22.4901V18.3863C81.8852 18.3672 81.8887 18.3481 81.8961 18.3304C81.9035 18.3126 81.9146 18.2966 81.9287 18.2833C81.9421 18.2701 81.9582 18.2598 81.9758 18.2529C81.9935 18.2461 82.0124 18.2429 82.0314 18.2435H82.3468C82.3663 18.2421 82.3859 18.2449 82.4042 18.2515C82.4226 18.2582 82.4392 18.2687 82.453 18.2822C82.4669 18.2958 82.4776 18.3121 82.4844 18.3301C82.4912 18.348 82.494 18.3672 82.4926 18.3863V19.826C82.6052 19.6849 82.7469 19.5684 82.9083 19.4842C83.1026 19.3928 83.3165 19.3487 83.5319 19.3555C83.7768 19.3479 84.0188 19.4088 84.2296 19.5311C84.4204 19.6488 84.5717 19.819 84.6645 20.0203C84.7683 20.2485 84.8189 20.4964 84.8126 20.7461V22.4901C84.8134 22.5085 84.8105 22.5269 84.8039 22.5442C84.7974 22.5615 84.7873 22.5773 84.7744 22.5908C84.7611 22.6048 84.7447 22.6156 84.7265 22.6225C84.7083 22.6294 84.6887 22.6322 84.6693 22.6306H84.3539C84.3345 22.6317 84.315 22.6287 84.2969 22.6218C84.2788 22.615 84.2624 22.6044 84.2487 22.5908C84.2355 22.5775 84.2251 22.5617 84.2181 22.5444C84.2112 22.5271 84.2078 22.5087 84.2081 22.4901V20.7765C84.2227 20.5329 84.1463 20.2924 83.9931 20.0999C83.9121 20.0178 83.8135 19.9542 83.7044 19.9137C83.5954 19.8732 83.4786 19.8569 83.3623 19.8658C83.2464 19.8601 83.1305 19.8779 83.0219 19.9182C82.9133 19.9585 82.8145 20.0204 82.7315 20.0999C82.5635 20.2855 82.4776 20.5289 82.4926 20.7765V22.4901C82.4934 22.5085 82.4904 22.5269 82.4839 22.5442C82.4773 22.5615 82.4672 22.5773 82.4543 22.5908C82.4405 22.6047 82.4236 22.6154 82.4051 22.6223C82.3865 22.6292 82.3666 22.632 82.3468 22.6306H82.0314Z" fill="white"/>
<path d="M86.0694 18.817C86.0499 18.8181 86.0305 18.8152 86.0124 18.8083C85.9943 18.8014 85.9778 18.7908 85.9642 18.7772C85.951 18.7639 85.9406 18.7482 85.9336 18.7309C85.9267 18.7136 85.9232 18.6952 85.9236 18.6766V18.3418C85.9236 18.303 85.938 18.2656 85.9642 18.2365C85.9776 18.2224 85.994 18.2114 86.0121 18.2041C86.0302 18.1969 86.0498 18.1935 86.0694 18.1943H86.4612C86.4811 18.1941 86.5008 18.1976 86.5193 18.2049C86.5377 18.2121 86.5545 18.2228 86.5687 18.2365C86.5966 18.2647 86.6121 18.3025 86.6117 18.3418V18.6766C86.6122 18.6954 86.6086 18.7141 86.6012 18.7314C86.5938 18.7488 86.5827 18.7644 86.5687 18.7772C86.5544 18.7906 86.5375 18.8009 86.5191 18.8078C86.5006 18.8146 86.4809 18.8178 86.4612 18.817H86.0694ZM86.1195 22.6305C86.1001 22.6315 86.0808 22.6284 86.0626 22.6216C86.0445 22.6147 86.0281 22.6042 86.0144 22.5907C86.0012 22.5774 85.9908 22.5617 85.9838 22.5444C85.9768 22.5271 85.9734 22.5087 85.9738 22.4901V19.5591C85.9734 19.5406 85.9768 19.5221 85.9838 19.5048C85.9908 19.4875 86.0012 19.4718 86.0144 19.4585C86.028 19.4447 86.0443 19.4338 86.0624 19.4266C86.0805 19.4193 86.1 19.4158 86.1195 19.4163H86.4206C86.4402 19.4155 86.4597 19.4189 86.4779 19.4262C86.496 19.4334 86.5123 19.4445 86.5257 19.4585C86.539 19.4718 86.5494 19.4875 86.5563 19.5048C86.5633 19.5221 86.5667 19.5406 86.5663 19.5591V22.4901C86.5667 22.5087 86.5633 22.5271 86.5563 22.5444C86.5494 22.5617 86.539 22.5774 86.5257 22.5907C86.5121 22.6043 86.4957 22.6149 86.4776 22.6218C86.4594 22.6287 86.44 22.6316 86.4206 22.6305H86.1195Z" fill="white"/>
<path d="M87.8949 22.6306C87.8759 22.6312 87.8569 22.628 87.8392 22.6212C87.8215 22.6144 87.8055 22.6041 87.792 22.5909C87.7786 22.5777 87.768 22.562 87.7611 22.5446C87.7541 22.5273 87.7508 22.5087 87.7515 22.4901V19.5592C87.7506 19.5405 87.7537 19.5219 87.7607 19.5045C87.7677 19.4872 87.7784 19.4715 87.7921 19.4585C87.8052 19.4448 87.8212 19.4339 87.8389 19.4267C87.8566 19.4194 87.8757 19.4159 87.8949 19.4164H88.1911C88.2107 19.4159 88.2301 19.4193 88.2482 19.4266C88.2663 19.4338 88.2827 19.4447 88.2963 19.4585C88.3095 19.4718 88.3199 19.4876 88.3269 19.5048C88.3339 19.5221 88.3372 19.5406 88.3369 19.5592V19.8307C88.4489 19.6898 88.5897 19.5734 88.7503 19.4889C88.949 19.3927 89.1691 19.3468 89.3906 19.3555C89.6354 19.3485 89.8772 19.4093 90.0883 19.5311C90.2785 19.6496 90.4295 19.8195 90.5231 20.0203C90.6258 20.2488 90.6764 20.4965 90.6713 20.7461V22.4901C90.6716 22.5087 90.6682 22.5271 90.6613 22.5444C90.6543 22.5617 90.6439 22.5775 90.6307 22.5908C90.617 22.6042 90.6005 22.6147 90.5824 22.6216C90.5643 22.6285 90.5449 22.6315 90.5255 22.6306H90.2125C90.1931 22.6315 90.1738 22.6285 90.1556 22.6216C90.1375 22.6147 90.1211 22.6042 90.1074 22.5908C90.0942 22.5775 90.0838 22.5617 90.0768 22.5444C90.0698 22.5271 90.0664 22.5087 90.0668 22.4901V20.7765C90.081 20.5333 90.0055 20.2932 89.8541 20.0999C89.7731 20.0178 89.6745 19.9542 89.5655 19.9137C89.4564 19.8732 89.3396 19.8569 89.2233 19.8658C89.1077 19.8595 88.992 19.8771 88.8837 19.9175C88.7755 19.9578 88.6771 20.02 88.5949 20.0999C88.427 20.2855 88.341 20.5289 88.356 20.7765V22.4901C88.3564 22.5087 88.353 22.5271 88.346 22.5444C88.339 22.5617 88.3286 22.5775 88.3154 22.5908C88.3017 22.6042 88.2852 22.6147 88.2671 22.6216C88.249 22.6285 88.2296 22.6315 88.2103 22.6306H87.8949Z" fill="white"/>
<path d="M94.8478 22.6306C94.8288 22.6312 94.8098 22.628 94.7921 22.6212C94.7745 22.6144 94.7584 22.6041 94.7449 22.5909C94.7315 22.5777 94.721 22.562 94.714 22.5446C94.707 22.5273 94.7038 22.5087 94.7044 22.4901V21.0317L93.1824 18.5104C93.1838 18.498 93.1838 18.4854 93.1824 18.4729C93.1799 18.4582 93.1799 18.4432 93.1824 18.4285C93.1836 18.3959 93.1973 18.365 93.2208 18.342C93.2443 18.319 93.2758 18.3056 93.309 18.3044H93.6292C93.6647 18.3043 93.6995 18.3141 93.7296 18.3325C93.7583 18.3509 93.7801 18.378 93.7917 18.4097L95.0222 20.4113L96.2527 18.4097C96.2715 18.3799 96.2958 18.3537 96.3244 18.3325C96.3532 18.3132 96.3875 18.3034 96.4224 18.3044H96.7354C96.7527 18.3043 96.7698 18.3076 96.7858 18.314C96.8018 18.3205 96.8163 18.3299 96.8286 18.3418C96.8407 18.3529 96.8504 18.3663 96.857 18.3812C96.8636 18.3961 96.8669 18.4122 96.8668 18.4285C96.8693 18.4432 96.8693 18.4582 96.8668 18.4729C96.8628 18.4861 96.8572 18.4986 96.8501 18.5104L95.3352 21.0317V22.4901C95.3356 22.5087 95.3322 22.5271 95.3252 22.5444C95.3182 22.5617 95.3078 22.5775 95.2946 22.5908C95.2801 22.6045 95.2628 22.6151 95.2439 22.622C95.225 22.6288 95.2048 22.6317 95.1847 22.6306H94.8478Z" fill="white"/>
<path d="M98.5895 22.6938C98.3105 22.703 98.0338 22.6409 97.7867 22.5135C97.5821 22.3964 97.4163 22.2241 97.3088 22.0172C97.1913 21.7912 97.126 21.5427 97.1177 21.2892C97.1177 21.2189 97.1177 21.13 97.1177 21.0223C97.1177 20.9146 97.1177 20.8256 97.1177 20.7578C97.125 20.5038 97.1912 20.2549 97.3112 20.0297C97.4237 19.8216 97.5956 19.65 97.8058 19.5358C98.0531 19.4171 98.3249 19.3554 98.6003 19.3554C98.8757 19.3554 99.1474 19.4171 99.3947 19.5358C99.6051 19.6506 99.7776 19.822 99.8917 20.0297C100.011 20.255 100.076 20.504 100.083 20.7578C100.083 20.8256 100.083 20.9123 100.083 21.0223C100.083 21.1323 100.083 21.2189 100.083 21.2892C100.075 21.5425 100.011 21.7911 99.8941 22.0172C99.7826 22.2259 99.6116 22.3983 99.4019 22.5135C99.1555 22.6406 98.8797 22.7027 98.6015 22.6938M98.6015 22.2256C98.7164 22.2324 98.8316 22.215 98.9391 22.1746C99.0467 22.1343 99.1442 22.0718 99.2251 21.9915C99.3919 21.7942 99.4817 21.5453 99.4784 21.2892C99.4784 21.2283 99.4784 21.1487 99.4784 21.0551C99.4784 20.9614 99.4784 20.8818 99.4784 20.821C99.4845 20.5608 99.3946 20.3073 99.2251 20.107C99.1441 20.0267 99.0466 19.9644 98.939 19.924C98.8315 19.8836 98.7164 19.8662 98.6015 19.8729C98.4858 19.8664 98.3701 19.8839 98.2618 19.9243C98.1535 19.9646 98.0551 20.0269 97.9731 20.107C97.8047 20.3071 97.7194 20.562 97.7341 20.821C97.7341 20.8818 97.7341 20.9591 97.7341 21.0551C97.7341 21.151 97.7341 21.2283 97.7341 21.2892C97.7224 21.5442 97.8075 21.7944 97.9731 21.9915C98.0551 22.0717 98.1534 22.134 98.2617 22.1743C98.37 22.2147 98.4858 22.2321 98.6015 22.2256Z" fill="white"/>
<path d="M102.341 22.6938C102.1 22.7015 101.862 22.6396 101.657 22.5158C101.469 22.3975 101.321 22.2273 101.232 22.0266C101.131 21.7985 101.081 21.5518 101.086 21.3032V19.5591C101.086 19.5406 101.089 19.5221 101.096 19.5048C101.103 19.4875 101.114 19.4718 101.127 19.4585C101.141 19.445 101.157 19.4345 101.175 19.4276C101.193 19.4208 101.213 19.4177 101.232 19.4187H101.548C101.567 19.4178 101.586 19.4208 101.603 19.4277C101.621 19.4346 101.637 19.4451 101.65 19.4585C101.664 19.4713 101.675 19.487 101.683 19.5043C101.69 19.5217 101.694 19.5403 101.693 19.5591V21.2704C101.693 21.8853 101.966 22.1928 102.513 22.1928C102.628 22.1987 102.743 22.181 102.851 22.1407C102.959 22.1003 103.057 22.0383 103.139 21.9587C103.222 21.8665 103.286 21.7591 103.327 21.6426C103.368 21.5261 103.386 21.4028 103.378 21.2798V19.5685C103.377 19.5497 103.381 19.531 103.388 19.5137C103.396 19.4963 103.407 19.4807 103.421 19.4678C103.434 19.4544 103.45 19.4439 103.468 19.4371C103.486 19.4302 103.505 19.4271 103.524 19.428H103.839C103.858 19.4267 103.876 19.4295 103.894 19.4364C103.911 19.4433 103.927 19.4541 103.939 19.4678C103.952 19.4813 103.962 19.4971 103.969 19.5144C103.975 19.5317 103.978 19.5501 103.978 19.5685V22.4994C103.978 22.5179 103.975 22.5363 103.969 22.5536C103.962 22.5709 103.952 22.5867 103.939 22.6001C103.927 22.6139 103.911 22.6246 103.894 22.6315C103.876 22.6384 103.858 22.6413 103.839 22.6399H103.543C103.524 22.6411 103.504 22.6382 103.487 22.6313C103.469 22.6244 103.453 22.6138 103.44 22.6001C103.426 22.5872 103.415 22.5716 103.407 22.5543C103.4 22.5369 103.396 22.5182 103.397 22.4994V22.2256C103.286 22.3688 103.145 22.4869 102.984 22.572C102.785 22.6673 102.564 22.7124 102.343 22.7031" fill="white"/>
<path d="M105.313 22.6305C105.294 22.6315 105.274 22.6284 105.256 22.6216C105.238 22.6147 105.222 22.6042 105.208 22.5908C105.195 22.5774 105.184 22.5617 105.177 22.5444C105.17 22.5271 105.167 22.5087 105.167 22.4901V19.5732C105.166 19.5342 105.181 19.4964 105.208 19.4678C105.221 19.4537 105.238 19.4425 105.256 19.4349C105.274 19.4272 105.293 19.4233 105.313 19.4234H105.602C105.622 19.4233 105.642 19.4271 105.661 19.4348C105.679 19.4424 105.696 19.4537 105.71 19.4678C105.725 19.4811 105.737 19.4974 105.744 19.5156C105.752 19.5338 105.756 19.5535 105.755 19.5732V19.8447C105.835 19.7073 105.956 19.5971 106.102 19.5287C106.27 19.4552 106.453 19.4192 106.637 19.4234H106.876C106.895 19.4229 106.915 19.4264 106.933 19.4336C106.951 19.4409 106.967 19.4517 106.981 19.4655C106.994 19.4788 107.005 19.4946 107.012 19.5119C107.018 19.5291 107.022 19.5476 107.022 19.5662V19.8073C107.022 19.8259 107.019 19.8444 107.012 19.8618C107.005 19.8791 106.994 19.8948 106.981 19.908C106.952 19.9326 106.914 19.9459 106.876 19.9454H106.498C106.4 19.9398 106.301 19.9542 106.209 19.9876C106.116 20.0211 106.032 20.0728 105.961 20.1397C105.894 20.2104 105.843 20.2934 105.809 20.3839C105.776 20.4743 105.762 20.5704 105.767 20.6664V22.4854C105.767 22.5044 105.763 22.5232 105.756 22.5405C105.748 22.5579 105.736 22.5734 105.722 22.5861C105.708 22.5996 105.691 22.6101 105.672 22.617C105.654 22.6238 105.634 22.6269 105.614 22.6259L105.313 22.6305Z" fill="white"/>
<path d="M109.698 22.6306C109.678 22.6324 109.658 22.6297 109.639 22.6228C109.621 22.6159 109.604 22.605 109.59 22.5908C109.577 22.5774 109.567 22.5615 109.561 22.5442C109.554 22.5269 109.551 22.5085 109.552 22.4901V18.4542C109.549 18.414 109.563 18.3745 109.59 18.3442C109.604 18.3304 109.621 18.3197 109.64 18.3129C109.658 18.306 109.678 18.3031 109.698 18.3044H111.236C111.64 18.283 112.038 18.3988 112.364 18.6321C112.506 18.751 112.618 18.9008 112.69 19.0695C112.762 19.2382 112.793 19.4211 112.78 19.6037C112.794 19.8812 112.709 20.1549 112.541 20.3785C112.372 20.5826 112.141 20.7285 111.882 20.7952L112.854 22.4339C112.864 22.4551 112.87 22.4783 112.871 22.5018C112.871 22.5184 112.868 22.5348 112.861 22.5499C112.854 22.5649 112.843 22.5781 112.83 22.5884C112.818 22.6004 112.804 22.6099 112.789 22.6164C112.773 22.6228 112.756 22.626 112.739 22.6259H112.434C112.405 22.6281 112.376 22.6244 112.349 22.6152C112.322 22.6059 112.297 22.5912 112.276 22.572C112.244 22.5363 112.215 22.4988 112.187 22.4597L111.275 20.8889H110.171V22.4854C110.171 22.5042 110.168 22.5229 110.16 22.5403C110.153 22.5576 110.142 22.5732 110.128 22.5861C110.114 22.6002 110.096 22.6111 110.077 22.6179C110.058 22.6248 110.038 22.6275 110.018 22.6259L109.698 22.6306ZM110.176 20.3692H111.215C111.47 20.3898 111.724 20.3209 111.932 20.1749C112.081 20.019 112.165 19.813 112.165 19.599C112.165 19.3849 112.081 19.179 111.932 19.0231C111.726 18.8727 111.471 18.8018 111.215 18.8241H110.176V20.3692Z" fill="white"/>
<path d="M115.133 22.6938C114.941 22.7034 114.749 22.6734 114.57 22.6057C114.39 22.5379 114.228 22.4339 114.092 22.3005C113.822 22.0055 113.672 21.6242 113.669 21.2283C113.669 21.1744 113.669 21.1066 113.669 21.0223C113.669 20.938 113.669 20.8678 113.669 20.8139C113.679 20.5453 113.75 20.2823 113.877 20.0437C113.991 19.8313 114.165 19.6551 114.378 19.5357C114.619 19.4142 114.886 19.3524 115.156 19.3556C115.427 19.3589 115.692 19.4272 115.929 19.5545C116.149 19.6885 116.322 19.8843 116.426 20.1163C116.544 20.3852 116.602 20.6758 116.596 20.9684V21.0738C116.597 21.0931 116.594 21.1124 116.587 21.1305C116.58 21.1486 116.569 21.1652 116.555 21.1791C116.526 21.2038 116.489 21.2171 116.45 21.2166H114.269V21.2704C114.275 21.4321 114.313 21.5911 114.381 21.7386C114.444 21.881 114.546 22.0039 114.675 22.0945C114.806 22.1862 114.965 22.2338 115.126 22.2302C115.256 22.235 115.385 22.2119 115.504 22.1623C115.591 22.1243 115.671 22.0738 115.743 22.0125C115.791 21.9735 115.833 21.9286 115.869 21.8791C115.892 21.8438 115.922 21.8135 115.958 21.7901C115.989 21.777 116.024 21.7714 116.058 21.7737H116.369C116.404 21.7739 116.439 21.7854 116.467 21.8065C116.48 21.8186 116.49 21.8337 116.496 21.8504C116.502 21.8671 116.503 21.885 116.5 21.9025C116.488 21.9878 116.454 22.0685 116.4 22.1366C116.324 22.2365 116.234 22.3248 116.132 22.3988C116.001 22.4919 115.856 22.5638 115.702 22.6118C115.516 22.6703 115.322 22.6988 115.126 22.6961M114.261 20.7929H115.989V20.7741C115.993 20.6033 115.957 20.4338 115.886 20.2778C115.82 20.1386 115.716 20.0202 115.585 19.936C115.485 19.8697 115.371 19.8256 115.251 19.807C115.131 19.7883 115.009 19.7955 114.892 19.8281C114.776 19.8607 114.668 19.9178 114.576 19.9955C114.485 20.0732 114.411 20.1695 114.362 20.2778C114.292 20.4343 114.258 20.6036 114.261 20.7741V20.7929Z" fill="white"/>
<path d="M118.514 22.6937C118.316 22.696 118.12 22.6535 117.941 22.5697C117.776 22.4933 117.634 22.3783 117.525 22.2349C117.422 22.0997 117.367 21.9354 117.367 21.7667C117.364 21.6336 117.394 21.5018 117.456 21.3832C117.518 21.2647 117.609 21.1631 117.721 21.0878C117.995 20.9032 118.311 20.7881 118.641 20.753L119.58 20.6243V20.444C119.585 20.3586 119.573 20.273 119.543 20.1925C119.514 20.112 119.468 20.0382 119.408 19.9758C119.248 19.851 119.045 19.7915 118.842 19.8096C118.683 19.8038 118.525 19.8419 118.388 19.9196C118.28 19.9887 118.197 20.0883 118.149 20.2053C118.14 20.2326 118.123 20.2564 118.099 20.2729C118.075 20.2895 118.047 20.2978 118.017 20.2966H117.733C117.714 20.2983 117.695 20.2956 117.677 20.2887C117.659 20.2818 117.643 20.2708 117.63 20.2568C117.606 20.2304 117.593 20.1961 117.594 20.1608C117.599 20.0779 117.624 19.9974 117.669 19.9267C117.725 19.825 117.8 19.7345 117.891 19.6598C118.007 19.5651 118.138 19.4906 118.28 19.4397C118.465 19.3764 118.66 19.3462 118.856 19.3508C119.073 19.3454 119.289 19.378 119.494 19.4468C119.64 19.495 119.772 19.5763 119.88 19.6841C119.988 19.7919 120.069 19.9231 120.115 20.0671C120.158 20.2013 120.18 20.341 120.18 20.4815V22.4854C120.18 22.504 120.177 22.5226 120.17 22.5399C120.163 22.5572 120.153 22.573 120.139 22.5862C120.126 22.5993 120.11 22.6097 120.092 22.6165C120.074 22.6233 120.055 22.6265 120.036 22.6259H119.745C119.725 22.6273 119.705 22.6245 119.687 22.6176C119.668 22.6107 119.651 22.6 119.637 22.5861C119.613 22.5581 119.6 22.5222 119.602 22.4854V22.2185C119.459 22.4057 119.26 22.5447 119.033 22.6165C118.868 22.6681 118.695 22.6926 118.522 22.6891M118.655 22.2209C118.821 22.223 118.985 22.1853 119.133 22.1108C119.279 22.0369 119.397 21.9197 119.47 21.7761C119.557 21.5964 119.599 21.3989 119.592 21.2002V21.027L118.861 21.1323C118.624 21.1543 118.395 21.2244 118.187 21.3383C118.117 21.3732 118.058 21.426 118.016 21.4911C117.974 21.5562 117.95 21.6312 117.948 21.7082C117.944 21.8127 117.981 21.9149 118.051 21.9938C118.123 22.0723 118.214 22.1312 118.316 22.1647C118.423 22.202 118.535 22.221 118.648 22.2209" fill="white"/>
<path d="M122.66 22.6938C122.391 22.6998 122.126 22.6411 121.886 22.5229C121.672 22.4132 121.497 22.2426 121.384 22.0336C121.261 21.7972 121.196 21.5358 121.195 21.2704C121.195 21.2096 121.195 21.1315 121.195 21.0363C121.195 20.9333 121.195 20.8514 121.195 20.7882C121.197 20.5229 121.261 20.2616 121.384 20.025C121.498 19.8175 121.673 19.648 121.886 19.5381C122.125 19.4187 122.391 19.36 122.66 19.3672C122.873 19.3623 123.085 19.3956 123.286 19.4655C123.445 19.5234 123.592 19.61 123.718 19.7207C123.824 19.8105 123.911 19.9194 123.974 20.0414C124.028 20.1472 124.059 20.2628 124.065 20.3809C124.068 20.3994 124.066 20.4185 124.059 20.4362C124.053 20.4539 124.041 20.4695 124.027 20.4815C123.997 20.5051 123.96 20.5176 123.921 20.5166H123.618C123.584 20.5187 123.55 20.5096 123.522 20.4909C123.496 20.4629 123.475 20.4304 123.46 20.3949C123.407 20.2229 123.298 20.0725 123.15 19.9665C123.006 19.8819 122.84 19.8397 122.672 19.8448C122.559 19.8411 122.446 19.86 122.34 19.9003C122.235 19.9405 122.139 20.0012 122.058 20.0789C121.88 20.283 121.789 20.546 121.802 20.8139C121.802 20.9638 121.802 21.1066 121.802 21.247C121.787 21.5166 121.879 21.7814 122.058 21.9868C122.139 22.0641 122.235 22.1246 122.341 22.1648C122.446 22.205 122.559 22.2241 122.672 22.2209C122.84 22.2264 123.006 22.1832 123.15 22.0968C123.298 21.9918 123.407 21.8422 123.46 21.6708C123.475 21.6349 123.496 21.6017 123.522 21.5724C123.535 21.5613 123.551 21.5529 123.567 21.5477C123.583 21.5425 123.601 21.5405 123.618 21.542H123.921C123.941 21.5413 123.96 21.5445 123.978 21.5513C123.996 21.5582 124.013 21.5685 124.027 21.5818C124.041 21.5938 124.053 21.6095 124.059 21.6271C124.066 21.6448 124.068 21.6639 124.065 21.6825C124.061 21.774 124.042 21.8642 124.007 21.9493C123.97 22.0486 123.916 22.1411 123.847 22.2232C123.77 22.3199 123.677 22.4036 123.573 22.4714C123.453 22.5484 123.321 22.6068 123.183 22.6446C123.013 22.6898 122.837 22.7119 122.66 22.7102" fill="white"/>
<path d="M125.219 22.6306C125.2 22.6312 125.181 22.628 125.163 22.6212C125.146 22.6144 125.129 22.6041 125.116 22.5909C125.103 22.5777 125.092 22.562 125.085 22.5446C125.078 22.5273 125.075 22.5087 125.075 22.4901V18.3863C125.075 18.3673 125.078 18.3483 125.085 18.3306C125.092 18.3129 125.102 18.2967 125.116 18.2833C125.13 18.2704 125.146 18.2602 125.163 18.2533C125.181 18.2465 125.2 18.2432 125.219 18.2435H125.534C125.554 18.2422 125.574 18.2451 125.592 18.252C125.611 18.2588 125.628 18.2695 125.642 18.2833C125.655 18.2972 125.665 18.3134 125.671 18.3311C125.678 18.3488 125.681 18.3675 125.68 18.3863V19.826C125.794 19.6859 125.935 19.5697 126.096 19.4843C126.291 19.3926 126.506 19.3484 126.722 19.3555C126.966 19.3481 127.207 19.409 127.417 19.5311C127.608 19.6488 127.759 19.819 127.852 20.0203C127.957 20.2483 128.008 20.4962 128.002 20.7461V22.4901C128.003 22.5272 127.989 22.5631 127.964 22.5908C127.95 22.6047 127.934 22.6155 127.915 22.6223C127.896 22.6292 127.877 22.632 127.857 22.6306H127.541C127.522 22.6315 127.503 22.6285 127.484 22.6216C127.466 22.6148 127.45 22.6043 127.436 22.5908C127.423 22.5775 127.413 22.5617 127.406 22.5444C127.399 22.5271 127.395 22.5087 127.396 22.4901V20.7765C127.41 20.5329 127.334 20.2924 127.181 20.0999C127.099 20.0178 127.001 19.9542 126.892 19.9137C126.783 19.8732 126.666 19.8569 126.55 19.8658C126.434 19.8601 126.318 19.8779 126.209 19.9182C126.101 19.9585 126.002 20.0204 125.919 20.0999C125.751 20.2855 125.665 20.5289 125.68 20.7765V22.4901C125.681 22.5085 125.678 22.5269 125.671 22.5442C125.665 22.5615 125.655 22.5773 125.642 22.5908C125.628 22.605 125.611 22.6159 125.593 22.6228C125.574 22.6297 125.554 22.6323 125.534 22.6306H125.219Z" fill="white"/>
</svg>
